<svg width="127" height="24" viewBox="0 0 127 24" fill="none" xmlns="http://www.w3.org/2000/svg">
<g clip-path="url(#clip0_91_2799)">
<path d="M0 6.979H4.13921L7.53596 16.6681L11.1926 6.979H13.7355L17.3179 16.5567L20.7146 6.979H24.891L18.7471 23.9999H16.0557L12.4548 14.3294L8.76102 24.0184H6.08817L0 6.979Z" fill="white"/>
<path d="M27.304 0H31.5174V9.13225C32.3527 8.40835 33.1694 7.87007 34.0232 7.5174C34.8585 7.16473 35.7123 6.97912 36.5661 6.97912C38.2367 6.97912 39.6288 7.53596 40.7982 8.7239C41.7819 9.72622 42.2645 11.2111 42.2645 13.1601V24H38.0882V16.9466C38.0882 14.9791 37.9954 13.6427 37.8098 12.9559C37.6241 12.2506 37.3086 11.7309 36.8631 11.3968C36.4176 11.0626 35.8608 10.877 35.1926 10.877C34.3388 10.877 33.5963 11.1555 32.9838 11.7309C32.3712 12.3063 31.9443 13.0858 31.703 14.0696C31.5731 14.5708 31.5174 15.7401 31.5174 17.5592V24H27.304V0Z" fill="white"/>
<path d="M48.0185 6.979C46.8306 6.979 45.9025 7.96276 45.9025 9.11357V23.9999H50.1345V9.11357C50.1345 7.96276 49.225 6.979 48.0185 6.979Z" fill="white"/>
<path d="M58.7471 6.97912V0H54.5151V24H58.7471V10.6914H61.2529V6.97912H58.7471Z" fill="white"/>
<path fill-rule="evenodd" clip-rule="evenodd" d="M79.8538 16.652H66.8793C67.065 17.8028 67.5661 18.7123 68.3828 19.3991C69.1995 20.0858 70.239 20.42 71.5012 20.42C73.0046 20.42 74.3039 19.8817 75.3991 18.8237L78.7958 20.4385C77.942 21.645 76.9397 22.536 75.7517 23.1299C74.5638 23.7053 73.1717 24.0023 71.5383 24.0023C69.0139 24.0023 66.9536 23.2042 65.3759 21.6079C63.7796 20.0116 63 18.007 63 15.594C63 13.1253 63.7981 11.065 65.3759 9.45012C66.9536 7.81671 68.9397 7 71.3341 7C73.877 7 75.9374 7.81671 77.5151 9.45012C79.1114 11.0835 79.891 13.2367 79.891 15.9095L79.8538 16.652ZM75.826 13.4594C75.5661 12.5499 75.0278 11.826 74.2483 11.2506C73.4687 10.6937 72.5592 10.3968 71.5197 10.3968C70.3875 10.3968 69.4037 10.7123 68.5499 11.3434C68.0116 11.7332 67.529 12.4385 67.065 13.4408H75.826V13.4594Z" fill="white"/>
<path d="M47.9814 0C48.7424 0 49.4107 0.278422 49.9489 0.816705C50.5058 1.37355 50.7657 2.0232 50.7657 2.82135C50.7657 3.60093 50.4872 4.25058 49.9489 4.78886C49.4107 5.32715 48.761 5.60557 48 5.60557C47.2204 5.60557 46.5522 5.32715 46.0139 4.7703C45.4571 4.21346 45.1972 3.54524 45.1972 2.7471C45.1972 1.98608 45.4756 1.33643 46.0139 0.798144C46.5522 0.278422 47.2204 0 47.9814 0Z" fill="white"/>
<path d="M92.3619 8.85383L91.8979 9.70766C91.8422 9.81903 91.8051 9.89327 91.7865 9.94896C91.768 10.0046 91.768 10.0603 91.768 10.116C91.768 10.2645 91.8236 10.3944 91.935 10.5058C92.0464 10.6172 92.1949 10.6729 92.3619 10.6729C92.529 10.6729 92.6589 10.6172 92.7703 10.5058C92.8816 10.3944 92.9373 10.2645 92.9373 10.116C92.9373 9.94896 92.8816 9.81903 92.7703 9.70766C92.6775 9.63341 92.5847 9.57773 92.4733 9.55916L92.7517 9.03944L92.3619 8.85383ZM92.4918 10.116C92.4918 10.1531 92.4733 10.1903 92.4547 10.2274C92.399 10.2831 92.3062 10.2831 92.2506 10.2274C92.2134 10.1903 92.2134 10.1717 92.2134 10.116C92.2134 10.0789 92.232 10.0418 92.2506 10.0046C92.2691 9.98608 92.3062 9.96752 92.3434 9.96752C92.3805 9.96752 92.4176 9.98608 92.4547 10.0046C92.4919 10.0418 92.4918 10.0789 92.4918 10.116ZM94.4037 2.24594L93.6612 3.30394L93.6427 3.32251V3.69374H94.3666V4.02784H94.812V3.69374H94.9605V3.28538H94.812V2.2645H94.4037V2.24594ZM94.1995 3.26682L94.3851 3.00696V3.26682H94.1995ZM84.7146 17.1694L85.3271 15.9814H84.6775V15.5731H85.9025V15.8329L85.1229 17.355L84.7146 17.1694ZM92.3434 21.3086C92.3805 21.2715 92.399 21.2343 92.399 21.1601C92.399 21.1044 92.3805 21.0487 92.3434 21.0302C92.2877 20.9745 92.232 20.9559 92.1577 20.993C92.1392 21.0116 92.1021 21.0302 92.0835 21.0487L92.0649 21.0673L91.7123 20.993L91.935 19.9907H92.8445V20.3991H92.2877L92.2506 20.5476H92.2691C92.4362 20.5476 92.5847 20.6032 92.696 20.7146C92.8074 20.826 92.8631 20.9745 92.8631 21.1415C92.8631 21.3086 92.8074 21.4571 92.6775 21.587C92.5475 21.6984 92.399 21.7726 92.232 21.7726C92.0835 21.7726 91.935 21.7355 91.8236 21.6427C91.7123 21.5499 91.638 21.4385 91.6009 21.29L91.5823 21.2158H92.0464L92.0649 21.2529C92.0835 21.29 92.1021 21.3271 92.1392 21.3457C92.1949 21.3643 92.2877 21.3643 92.3434 21.3086ZM92.1392 12.7332C92.2506 12.6218 92.3062 12.4919 92.3062 12.3434C92.3062 12.1763 92.2506 12.0464 92.1392 11.935C92.0464 11.8608 91.9536 11.8051 91.8422 11.7865L92.1206 11.2668L91.7308 11.0812L91.2668 11.935C91.2111 12.0464 91.174 12.1206 91.1554 12.1763C91.1369 12.232 91.1369 12.2877 91.1369 12.3434C91.1369 12.4919 91.1925 12.6218 91.3039 12.7332C91.4153 12.8445 91.5638 12.9002 91.7308 12.9002C91.8793 12.9002 92.0278 12.8445 92.1392 12.7332ZM91.5823 12.3434C91.5823 12.3063 91.6009 12.2691 91.6195 12.232C91.638 12.2135 91.6751 12.1949 91.7123 12.1949C91.7494 12.1949 91.7865 12.2135 91.8236 12.232C91.8608 12.2691 91.8608 12.2877 91.8608 12.3434C91.8608 12.3805 91.8422 12.4176 91.8236 12.4548C91.768 12.5104 91.6751 12.5104 91.6195 12.4548C91.5823 12.4176 91.5823 12.3805 91.5823 12.3434ZM101.197 17.2993V16.9652H101.346V16.5568H101.197V15.536H100.77L100.028 16.594L100.009 16.6125V16.9838H100.733V17.3179H101.197V17.2993ZM100.566 16.5568L100.752 16.297V16.5568H100.566ZM90.71 12.8445C90.8028 12.8074 90.877 12.7332 90.9327 12.6404C90.9884 12.5476 91.0069 12.4548 91.0069 12.3619C91.0069 12.2691 90.9884 12.1763 90.9327 12.1021C90.8956 12.0464 90.8584 11.9907 90.8028 11.9536C90.8399 11.9165 90.877 11.8608 90.8956 11.8237C90.9141 11.768 90.9327 11.7123 90.9327 11.6381C90.9327 11.5452 90.9141 11.4524 90.8584 11.3782C90.8028 11.3039 90.7471 11.2297 90.6543 11.1926C90.4872 11.0998 90.2459 11.0998 90.0789 11.1926C89.986 11.2297 89.9304 11.3039 89.8747 11.3782C89.819 11.4524 89.8004 11.5452 89.8004 11.6381C89.8004 11.7123 89.819 11.768 89.8376 11.8422C89.8561 11.8793 89.8747 11.9165 89.9118 11.9536C89.8561 12.0093 89.819 12.065 89.7819 12.1206C89.7448 12.1949 89.7262 12.2877 89.7262 12.3805C89.7262 12.4919 89.7448 12.5847 89.8004 12.6775C89.8561 12.7703 89.9304 12.826 90.0232 12.8817C90.116 12.9188 90.2274 12.9374 90.3758 12.9374C90.5058 12.9002 90.6171 12.8817 90.71 12.8445ZM90.4501 11.7123C90.413 11.7494 90.3387 11.7494 90.283 11.7123C90.2645 11.6937 90.2459 11.6566 90.2459 11.6381C90.2459 11.6009 90.2645 11.5824 90.283 11.5638C90.3016 11.5452 90.3202 11.5267 90.3573 11.5267C90.3944 11.5267 90.4315 11.5452 90.4501 11.5638C90.4686 11.5824 90.4872 11.6009 90.4872 11.6381C90.4687 11.6752 90.4686 11.6937 90.4501 11.7123ZM90.2274 12.2135C90.2645 12.1763 90.3202 12.1578 90.3758 12.1578C90.4315 12.1578 90.4872 12.1763 90.5243 12.2135C90.5615 12.2506 90.58 12.2877 90.58 12.3248C90.58 12.3805 90.5615 12.4176 90.5243 12.4362C90.4501 12.4919 90.3016 12.4919 90.2274 12.4362C90.1902 12.3991 90.1717 12.3619 90.1717 12.3248C90.1717 12.2877 90.1902 12.2506 90.2274 12.2135ZM94.5893 21.7169V20.4176H94.1995L94.4594 20.0093H95.0348V21.7355H94.5893V21.7169ZM89.1322 20.529C89.0394 20.6218 88.9837 20.7332 88.9837 20.8631C88.9837 20.9559 89.0023 21.0487 89.0394 21.123C89.0765 21.1972 89.1322 21.2529 89.225 21.29C89.3735 21.3643 89.5591 21.3643 89.7076 21.3086C89.7819 21.2715 89.8561 21.2158 89.9304 21.1415L89.986 21.1044L90.3016 21.42L90.2459 21.4571C90.116 21.587 89.9861 21.6613 89.8747 21.7169C89.7633 21.7726 89.6148 21.7912 89.4663 21.7912C89.1879 21.7912 88.9652 21.6984 88.7796 21.5313C88.5939 21.3643 88.5197 21.1415 88.5197 20.8817C88.5197 20.7146 88.5568 20.5661 88.6496 20.4176C88.7239 20.2877 88.8538 20.1763 89.0023 20.1021C89.2807 19.9536 89.6148 19.935 89.9118 20.065C90.0417 20.1206 90.1717 20.2135 90.2645 20.3248L90.3016 20.3805L89.986 20.6775L89.9304 20.6218C89.8004 20.4733 89.6334 20.4176 89.4663 20.4176C89.3364 20.3805 89.225 20.4362 89.1322 20.529ZM90.9327 21.7726C91.0997 21.7726 91.2297 21.7169 91.341 21.6056C91.4524 21.4942 91.5081 21.3643 91.5081 21.2158C91.5081 21.0487 91.4524 20.9188 91.341 20.8074C91.2482 20.7146 91.1554 20.6775 91.0441 20.6589L91.3225 20.1392L90.9327 19.9536L90.4686 20.8074C90.413 20.9188 90.3758 20.993 90.3573 21.0487C90.3387 21.1044 90.3387 21.1601 90.3387 21.2158C90.3387 21.3643 90.3944 21.4942 90.5058 21.6056C90.6171 21.7169 90.7656 21.7726 90.9327 21.7726ZM90.7842 21.1972C90.7842 21.1601 90.8028 21.123 90.8213 21.0858C90.8399 21.0673 90.877 21.0487 90.9141 21.0487C90.9512 21.0487 90.9884 21.0673 91.0255 21.0858C91.0626 21.123 91.0626 21.1415 91.0626 21.1972C91.0626 21.2343 91.0441 21.2715 91.0255 21.3086C90.9698 21.3643 90.877 21.3643 90.8213 21.3086C90.8028 21.2715 90.7842 21.2529 90.7842 21.1972ZM95.3874 21.6056L96 20.4176H95.3503V20.0093H96.5754V20.2691L95.7958 21.8097L95.3874 21.6056ZM93.4942 12.065C93.5499 11.9536 93.587 11.8793 93.6055 11.8237C93.6241 11.768 93.6241 11.7123 93.6241 11.6566C93.6241 11.5081 93.5684 11.3782 93.457 11.2668C93.3457 11.1555 93.1972 11.0998 93.0301 11.0998C92.8631 11.0998 92.7332 11.1555 92.6218 11.2668C92.5104 11.3782 92.4547 11.5081 92.4547 11.6752C92.4547 11.8422 92.5104 11.9722 92.6218 12.0835C92.7146 12.1763 92.8074 12.2135 92.9188 12.232L92.6403 12.7517L93.0301 12.9374L93.4942 12.065ZM93.1786 11.6752C93.1786 11.7123 93.1601 11.7494 93.1415 11.7865C93.0858 11.8422 92.993 11.8422 92.9373 11.7865C92.9002 11.7494 92.9002 11.7309 92.9002 11.6752C92.9002 11.6381 92.9188 11.6009 92.9373 11.5638C92.9745 11.5267 92.993 11.5267 93.0487 11.5267C93.0858 11.5267 93.1229 11.5452 93.1415 11.5638C93.1786 11.5824 93.1786 11.6195 93.1786 11.6752ZM91.1183 10.2274C91.1554 10.1903 91.174 10.1531 91.174 10.0789C91.174 10.0232 91.1554 9.96752 91.1183 9.94896C91.0626 9.89327 91.0069 9.87471 90.9327 9.91183C90.9141 9.93039 90.877 9.94896 90.8584 9.96752L90.8399 9.98608L90.4872 9.91183L90.71 8.90951H91.6195V9.31787H91.0626L91.0255 9.46636H91.0441C91.2111 9.46636 91.3596 9.52204 91.471 9.63341C91.5823 9.74478 91.638 9.89327 91.638 10.0603C91.638 10.2274 91.5823 10.3759 91.4524 10.5058C91.3225 10.6172 91.174 10.6914 91.0069 10.6914C90.8584 10.6914 90.71 10.6543 90.5986 10.5615C90.4872 10.4687 90.413 10.3573 90.3758 10.2088L90.3573 10.1346H90.8213L90.8399 10.1717C90.8584 10.2088 90.877 10.2459 90.9141 10.2645C90.9512 10.2831 91.0626 10.2831 91.1183 10.2274ZM100.807 14.2367C100.807 14.4594 100.826 14.6264 100.882 14.7378C100.937 14.8677 101.012 14.9606 101.104 15.0162C101.197 15.0719 101.327 15.109 101.457 15.109C101.606 15.109 101.717 15.0719 101.81 15.0162C101.903 14.9606 101.977 14.8492 102.032 14.7193C102.088 14.5893 102.107 14.4223 102.107 14.1995C102.107 13.9768 102.088 13.8097 102.032 13.6798C101.977 13.5499 101.903 13.4571 101.81 13.3828C101.717 13.3271 101.587 13.29 101.457 13.29C101.253 13.29 101.086 13.3643 100.956 13.5313C100.845 13.6984 100.807 13.9211 100.807 14.2367ZM101.253 14.2367C101.253 14.0882 101.271 13.9768 101.29 13.9026C101.309 13.8283 101.327 13.7912 101.364 13.7726C101.401 13.7541 101.42 13.7355 101.457 13.7355C101.494 13.7355 101.55 13.7541 101.587 13.8283C101.624 13.884 101.643 13.9768 101.643 14.2367C101.643 14.4223 101.624 14.5708 101.568 14.645C101.531 14.7193 101.476 14.7193 101.438 14.7193C101.401 14.7193 101.346 14.7193 101.309 14.6264C101.29 14.5708 101.253 14.478 101.253 14.2367ZM85.2343 4.43619L84.7703 5.29002C84.7146 5.40139 84.6775 5.47564 84.6589 5.53132C84.6403 5.58701 84.6403 5.64269 84.6403 5.69838C84.6403 5.84687 84.696 5.9768 84.8074 6.08817C84.9188 6.19954 85.0673 6.25522 85.2343 6.25522C85.4014 6.25522 85.5313 6.19954 85.6427 6.08817C85.754 5.9768 85.8097 5.84687 85.8097 5.69838C85.8097 5.53132 85.754 5.40139 85.6427 5.29002C85.5499 5.21578 85.457 5.16009 85.3457 5.14153L85.6241 4.62181L85.2343 4.43619ZM85.3828 5.69838C85.3828 5.7355 85.3642 5.77262 85.3457 5.80974C85.29 5.86543 85.1972 5.86543 85.1415 5.80974C85.1044 5.77262 85.1044 5.75406 85.1044 5.69838C85.1044 5.66125 85.1229 5.62413 85.1415 5.58701C85.1601 5.56845 85.1972 5.54988 85.2343 5.54988C85.2714 5.54988 85.3086 5.56845 85.3457 5.58701C85.3642 5.60557 85.3828 5.64269 85.3828 5.69838ZM85.3828 10.2274C85.4199 10.1903 85.4385 10.1531 85.4385 10.116C85.4385 10.0603 85.4199 10.0232 85.3642 9.98608C85.3086 9.94896 85.2343 9.93039 85.1229 9.93039H85.0487V9.5406H85.1044C85.1972 9.5406 85.2343 9.52204 85.2529 9.50348C85.2714 9.48492 85.29 9.48492 85.3086 9.4478C85.3271 9.42923 85.3271 9.41067 85.3271 9.39211C85.3271 9.37355 85.3271 9.35499 85.3086 9.33643C85.29 9.31786 85.2714 9.31787 85.2343 9.31787C85.1972 9.31787 85.1786 9.31786 85.1601 9.33643C85.1415 9.35499 85.1229 9.37355 85.1044 9.41067L85.0858 9.4478H84.6589L84.6775 9.37355C84.696 9.24362 84.7517 9.13225 84.826 9.058C84.9373 8.94664 85.0858 8.89095 85.2529 8.89095C85.4014 8.89095 85.5313 8.94664 85.6427 9.03944C85.754 9.13225 85.8097 9.24362 85.8097 9.37355C85.8097 9.46636 85.7912 9.5406 85.7355 9.59629C85.7169 9.63341 85.6798 9.67053 85.6427 9.68909C85.6983 9.72622 85.754 9.76334 85.7912 9.81903C85.8654 9.89327 85.884 10.0046 85.884 10.116C85.884 10.2831 85.8283 10.413 85.6984 10.5244C85.5684 10.6357 85.4199 10.6914 85.2343 10.6914C85.0487 10.6914 84.9002 10.6357 84.7888 10.5244C84.6775 10.413 84.6032 10.2831 84.6032 10.0974V10.0232H85.0487V10.0789C85.0673 10.1531 85.0858 10.1903 85.1229 10.2274C85.1786 10.3016 85.3086 10.3016 85.3828 10.2274ZM89.2436 2.96984C89.2807 2.91415 89.2993 2.85847 89.2993 2.80278C89.2993 2.76566 89.2807 2.72854 89.2622 2.69142C89.2065 2.63573 89.0951 2.63573 89.0209 2.70998C88.9837 2.7471 88.9652 2.80278 88.9652 2.85847V2.91415H88.5197V2.83991C88.5197 2.65429 88.5939 2.5058 88.7053 2.39443C88.8167 2.28306 88.9652 2.22738 89.1508 2.22738C89.2622 2.22738 89.3735 2.24594 89.4478 2.30162C89.5406 2.33875 89.6148 2.41299 89.6519 2.5058C89.7076 2.59861 89.7262 2.67285 89.7262 2.76566C89.7262 2.87703 89.6891 2.9884 89.6334 3.09977C89.5777 3.21114 89.4663 3.34107 89.3178 3.50812L89.2436 3.58237H89.7448V3.99072H88.464V3.74942L89.0023 3.2297C89.1322 3.11833 89.2065 3.02552 89.2436 2.96984ZM89.6334 8.85383L89.1693 9.70766C89.1137 9.81903 89.0765 9.89327 89.058 9.94896C89.0394 10.0046 89.0394 10.0603 89.0394 10.116C89.0394 10.2645 89.0951 10.3944 89.2065 10.5058C89.3178 10.6172 89.4663 10.6729 89.6334 10.6729C89.8004 10.6729 89.9304 10.6172 90.0417 10.5058C90.1531 10.3944 90.2088 10.2645 90.2088 10.116C90.2088 9.94896 90.1531 9.81903 90.0417 9.70766C89.9489 9.63341 89.8561 9.57773 89.7448 9.55916L90.0232 9.03944L89.6334 8.85383ZM89.7819 10.116C89.7819 10.1531 89.7633 10.1903 89.7448 10.2274C89.6891 10.2831 89.5963 10.2831 89.5406 10.2274C89.5035 10.1903 89.5035 10.1717 89.5035 10.116C89.5035 10.0789 89.522 10.0418 89.5406 10.0046C89.5591 9.98608 89.5963 9.96752 89.6334 9.96752C89.6705 9.96752 89.7076 9.98608 89.7448 10.0046C89.7633 10.0418 89.7819 10.0789 89.7819 10.116ZM89.1322 17.7262L88.6682 18.58C88.6125 18.6914 88.5754 18.7657 88.5568 18.8213C88.5383 18.877 88.5383 18.9327 88.5383 18.9884C88.5383 19.1369 88.5939 19.2668 88.7053 19.3782C88.8167 19.4896 88.9652 19.5452 89.1322 19.5452C89.2993 19.5452 89.4292 19.4896 89.5406 19.3782C89.6519 19.2668 89.7076 19.1369 89.7076 18.9884C89.7076 18.8213 89.6519 18.6914 89.5406 18.58C89.4478 18.5058 89.355 18.4501 89.2436 18.4316L89.522 17.9118L89.1322 17.7262ZM89.2622 18.9884C89.2622 19.0255 89.2436 19.0626 89.225 19.0998C89.1693 19.1555 89.0765 19.1555 89.0209 19.0998C88.9837 19.0626 88.9837 19.0441 88.9837 18.9884C88.9837 18.9513 89.0023 18.9142 89.0209 18.877C89.0394 18.8585 89.0765 18.8399 89.1137 18.8399C89.1508 18.8399 89.1879 18.8585 89.225 18.877C89.2622 18.8956 89.2622 18.9327 89.2622 18.9884ZM84.6775 14.7378C84.7332 14.8677 84.8074 14.9606 84.9002 15.0162C84.993 15.0719 85.1229 15.109 85.2529 15.109C85.4014 15.109 85.5127 15.0719 85.6055 15.0162C85.6984 14.9606 85.7726 14.8492 85.8283 14.7193C85.8468 14.6636 85.8654 14.6079 85.884 14.5336V14.7378H86.6079V15.0719H87.0533V14.7378H87.2018V14.3295H87.0533V13.3086H86.6264L85.9025 14.348C85.9025 14.3109 85.9025 14.2552 85.9025 14.2181C85.9025 13.9954 85.884 13.8283 85.8283 13.6984C85.7726 13.5684 85.6984 13.4756 85.6055 13.4014C85.5127 13.3457 85.3828 13.3086 85.2529 13.3086C85.0487 13.3086 84.8816 13.3828 84.7517 13.5499C84.6403 13.6984 84.6032 13.9211 84.6032 14.2181C84.6032 14.4594 84.6218 14.6264 84.6775 14.7378ZM86.4222 14.348L86.6079 14.0882V14.348H86.4222ZM85.0487 14.2367C85.0487 14.0882 85.0673 13.9768 85.0858 13.9026C85.1044 13.8283 85.1229 13.7912 85.1601 13.7726C85.1786 13.7541 85.2157 13.7355 85.2529 13.7355C85.29 13.7355 85.3457 13.7541 85.3828 13.8283C85.4199 13.884 85.4385 13.9768 85.4385 14.2367C85.4385 14.4223 85.4199 14.5708 85.3642 14.645C85.3271 14.7193 85.2714 14.7193 85.2343 14.7193C85.1972 14.7193 85.1415 14.7193 85.1044 14.6264C85.0858 14.5708 85.0487 14.478 85.0487 14.2367ZM88.9837 11.0812L88.5197 11.935C88.464 12.0464 88.4269 12.1206 88.4083 12.1763C88.3898 12.232 88.3898 12.2877 88.3898 12.3434C88.3898 12.4919 88.4455 12.6218 88.5568 12.7332C88.6682 12.8445 88.8167 12.9002 88.9837 12.9002C89.1508 12.9002 89.2807 12.8445 89.3921 12.7332C89.5035 12.6218 89.5591 12.4919 89.5591 12.3434C89.5591 12.1763 89.5035 12.0464 89.3921 11.935C89.2993 11.8608 89.2065 11.8051 89.0951 11.7865L89.3735 11.2668L88.9837 11.0812ZM89.1322 12.3434C89.1322 12.3805 89.1137 12.4176 89.0951 12.4548C89.0394 12.5104 88.9466 12.5104 88.8909 12.4548C88.8538 12.4176 88.8538 12.3991 88.8538 12.3434C88.8538 12.3063 88.8724 12.2691 88.8909 12.232C88.9095 12.2135 88.9466 12.1949 88.9837 12.1949C89.0209 12.1949 89.058 12.2135 89.0951 12.232C89.1137 12.2506 89.1322 12.2877 89.1322 12.3434ZM87.8515 8.50116L88.3155 7.64733C88.3712 7.53596 88.4083 7.46172 88.4269 7.40603C88.4454 7.35035 88.4454 7.29466 88.4454 7.23898C88.4454 7.09049 88.3898 6.96056 88.2784 6.84919C88.167 6.73782 88.0185 6.68213 87.8515 6.68213C87.6844 6.68213 87.5545 6.73782 87.4431 6.84919C87.3318 6.96056 87.2761 7.09049 87.2761 7.25754C87.2761 7.42459 87.3318 7.55452 87.4431 7.66589C87.5359 7.7587 87.6287 7.79582 87.7401 7.81438L87.4617 8.33411L87.8515 8.50116ZM87.703 7.23898C87.703 7.20186 87.7216 7.16473 87.7401 7.12761C87.7772 7.09049 87.7958 7.09049 87.8515 7.09049C87.8886 7.09049 87.9257 7.10905 87.9443 7.12761C87.9814 7.16473 87.9814 7.18329 87.9814 7.23898C87.9814 7.2761 87.9628 7.31322 87.9443 7.35035C87.8886 7.40603 87.7958 7.40603 87.7401 7.35035C87.7216 7.31322 87.703 7.2761 87.703 7.23898ZM95.7587 8.01856C95.7958 7.98144 95.8144 7.94431 95.8144 7.90719C95.8144 7.85151 95.7958 7.81438 95.7401 7.77726C95.6844 7.74014 95.6102 7.72158 95.4988 7.72158H95.4246V7.33179H95.4803C95.5731 7.33179 95.6102 7.31322 95.6287 7.29466C95.6473 7.2761 95.6659 7.2761 95.6844 7.23898C95.703 7.22042 95.703 7.20186 95.703 7.18329C95.703 7.16473 95.703 7.14617 95.6844 7.12761C95.6659 7.10905 95.6473 7.10905 95.6102 7.10905C95.5731 7.10905 95.5545 7.10905 95.5359 7.12761C95.5174 7.14617 95.4988 7.16473 95.4803 7.20186L95.4617 7.23898H95.0348L95.0533 7.16473C95.0719 7.0348 95.1276 6.92343 95.2018 6.84919C95.3132 6.73782 95.4617 6.68213 95.6287 6.68213C95.7772 6.68213 95.9072 6.73782 96.0185 6.83063C96.1299 6.92343 96.1856 7.0348 96.1856 7.16473C96.1856 7.23898 96.167 7.33179 96.1113 7.38747C96.0928 7.42459 96.0557 7.46172 96.0185 7.48028C96.0742 7.5174 96.1299 7.55452 96.167 7.61021C96.2413 7.70302 96.2598 7.79582 96.2598 7.90719C96.2598 8.07425 96.2041 8.20418 96.0742 8.31555C95.9443 8.42691 95.7958 8.4826 95.6102 8.4826C95.4246 8.4826 95.2761 8.42691 95.1647 8.33411C95.0533 8.22274 94.9791 8.09281 94.9791 7.90719V7.83295H95.4246V7.88863C95.4431 7.96288 95.4617 8 95.4988 8.03712C95.5545 8.07425 95.6844 8.07425 95.7587 8.01856ZM85.9025 5.69838C85.9025 5.80974 85.9211 5.90255 85.9768 5.99536C86.0325 6.08817 86.1067 6.14385 86.1995 6.19954C86.2923 6.23666 86.4037 6.25522 86.5522 6.25522C86.6821 6.25522 86.7935 6.23666 86.8863 6.18097C86.9791 6.14385 87.0533 6.06961 87.109 5.9768C87.1647 5.88399 87.1833 5.79118 87.1833 5.69838C87.1833 5.60557 87.1647 5.51276 87.109 5.43851C87.0719 5.38283 87.0348 5.32715 86.9791 5.29002C87.0162 5.2529 87.0533 5.19722 87.0719 5.16009C87.0905 5.10441 87.109 5.04872 87.109 4.97448C87.109 4.88167 87.0905 4.78886 87.0348 4.71462C86.9791 4.64037 86.9234 4.56612 86.8306 4.529C86.6635 4.43619 86.4223 4.43619 86.2552 4.529C86.1624 4.56612 86.1067 4.64037 86.051 4.71462C85.9953 4.78886 85.9768 4.88167 85.9768 4.97448C85.9768 5.04872 85.9953 5.10441 86.0139 5.17865C86.0325 5.21578 86.051 5.2529 86.0881 5.29002C86.0325 5.34571 85.9953 5.40139 85.9582 5.45708C85.9211 5.51276 85.9025 5.60557 85.9025 5.69838ZM86.6264 5.06729C86.5893 5.10441 86.5151 5.10441 86.4594 5.06729C86.4408 5.04872 86.4222 5.0116 86.4222 4.97448C86.4222 4.93735 86.4408 4.91879 86.4594 4.90023C86.4779 4.88167 86.4965 4.86311 86.5336 4.86311C86.5707 4.86311 86.6079 4.88167 86.6264 4.90023C86.645 4.91879 86.6635 4.93735 86.6635 4.97448C86.6635 5.0116 86.645 5.04872 86.6264 5.06729ZM86.5522 5.51276C86.6079 5.51276 86.6635 5.53132 86.7007 5.56845C86.7378 5.60557 86.7564 5.64269 86.7564 5.67981C86.7564 5.7355 86.7378 5.77262 86.7007 5.79118C86.6264 5.84687 86.4779 5.84687 86.4037 5.79118C86.3666 5.75406 86.348 5.71694 86.348 5.67981C86.348 5.64269 86.3666 5.60557 86.4037 5.56845C86.4408 5.53132 86.4965 5.51276 86.5522 5.51276ZM86.5336 6.64501L86.0696 7.49884C86.0139 7.61021 85.9768 7.68445 85.9582 7.74014C85.9397 7.79582 85.9396 7.85151 85.9396 7.90719C85.9396 8.05568 85.9953 8.18561 86.1067 8.29698C86.2181 8.40835 86.3666 8.46404 86.5336 8.46404C86.7007 8.46404 86.8306 8.40835 86.942 8.29698C87.0533 8.18561 87.109 8.05568 87.109 7.90719C87.109 7.74014 87.0533 7.61021 86.942 7.49884C86.8492 7.42459 86.7564 7.36891 86.645 7.35035L86.9234 6.83063L86.5336 6.64501ZM86.6821 7.90719C86.6821 7.94431 86.6635 7.98144 86.645 8.01856C86.5893 8.07425 86.4965 8.07425 86.4408 8.01856C86.4037 7.98144 86.4037 7.96288 86.4037 7.90719C86.4037 7.87007 86.4223 7.83295 86.4408 7.79582C86.4594 7.77726 86.4965 7.7587 86.5336 7.7587C86.5707 7.7587 86.6079 7.77726 86.645 7.79582C86.6635 7.83295 86.6821 7.85151 86.6821 7.90719ZM87.9443 14.051C87.9814 13.9954 88 13.9397 88 13.884C88 13.8469 87.9814 13.8097 87.9628 13.7726C87.9072 13.7169 87.7958 13.7169 87.7216 13.7912C87.6844 13.8283 87.6659 13.884 87.6659 13.9397V13.9954H87.2204V13.9211C87.2204 13.7355 87.2946 13.587 87.406 13.4756C87.5174 13.3643 87.6659 13.3086 87.8515 13.3086C87.9628 13.3086 88.0557 13.3271 88.1485 13.3828C88.2413 13.42 88.3155 13.4942 88.3526 13.587C88.4083 13.6798 88.4269 13.7541 88.4269 13.8469C88.4269 13.9582 88.3898 14.0696 88.3341 14.181C88.2784 14.2923 88.167 14.4223 88.0185 14.5893L87.9443 14.6636H88.4454V15.0719H87.1647V14.8492L87.703 14.3295C87.8329 14.1995 87.9072 14.1067 87.9443 14.051ZM87.8329 4.43619L87.3689 5.29002C87.3132 5.40139 87.2761 5.47564 87.2575 5.53132C87.239 5.58701 87.239 5.64269 87.239 5.69838C87.239 5.84687 87.2946 5.9768 87.406 6.08817C87.5174 6.19954 87.6659 6.25522 87.8329 6.25522C88 6.25522 88.1299 6.19954 88.2413 6.08817C88.3526 5.9768 88.4083 5.84687 88.4083 5.69838C88.4083 5.53132 88.3526 5.40139 88.2413 5.29002C88.1485 5.21578 88.0557 5.16009 87.9443 5.14153L88.2227 4.62181L87.8329 4.43619ZM87.9814 5.69838C87.9814 5.7355 87.9628 5.77262 87.9443 5.80974C87.8886 5.86543 87.7958 5.86543 87.7401 5.80974C87.703 5.77262 87.703 5.75406 87.703 5.69838C87.703 5.66125 87.7216 5.62413 87.7401 5.58701C87.7587 5.56845 87.7958 5.54988 87.8329 5.54988C87.87 5.54988 87.9072 5.56845 87.9443 5.58701C87.9628 5.60557 87.9814 5.64269 87.9814 5.69838ZM86.0139 12.7517L86.6264 11.5638H85.9768V11.1369H87.2018V11.3968L86.4222 12.9188L86.0139 12.7517ZM87.239 9.7819C87.239 9.61485 87.2761 9.46636 87.3689 9.31787C87.4431 9.18793 87.5731 9.07657 87.7216 9.00232C88 8.85383 88.3341 8.83527 88.6311 8.9652C88.761 9.02088 88.8909 9.11369 88.9837 9.22506L89.0209 9.28074L88.7053 9.57773L88.6496 9.52204C88.5197 9.37355 88.3526 9.31787 88.1856 9.31787C88.0371 9.31787 87.9257 9.35499 87.8329 9.4478C87.7401 9.5406 87.6844 9.65197 87.6844 9.7819C87.6844 9.87471 87.703 9.96752 87.7401 10.0418C87.7772 10.116 87.8329 10.1717 87.9257 10.2088C88.0742 10.2831 88.2598 10.2831 88.4083 10.2274C88.4826 10.1903 88.5568 10.1346 88.6311 10.0603L88.6867 10.0232L89.0023 10.3387L88.9466 10.3759C88.8167 10.5058 88.6868 10.58 88.5754 10.6357C88.464 10.6914 88.3155 10.71 88.167 10.71C87.8886 10.71 87.6659 10.6172 87.4802 10.4501C87.3318 10.2645 87.239 10.0418 87.239 9.7819ZM89.1879 15.0719H89.6334V14.7378H89.7819V14.3295H89.6334V13.3086H89.2065L88.464 14.3666L88.4454 14.3851V14.7564H89.1693V15.0719H89.1879ZM89.0209 14.348L89.2065 14.0882V14.348H89.0209ZM86.1067 10.5244C86.2181 10.6357 86.3666 10.6914 86.5336 10.6914C86.7007 10.6914 86.8306 10.6357 86.942 10.5244C87.0533 10.413 87.109 10.2831 87.109 10.1346C87.109 9.96752 87.0533 9.83759 86.942 9.72622C86.8492 9.65197 86.7564 9.59629 86.645 9.57773L86.9234 9.058L86.5336 8.87239L86.0696 9.72622C86.0139 9.83759 85.9768 9.91183 85.9582 9.96752C85.9397 10.0232 85.9396 10.0789 85.9396 10.1346C85.9396 10.2831 85.9953 10.413 86.1067 10.5244ZM86.3851 10.116C86.3851 10.0789 86.4037 10.0418 86.4222 10.0046C86.4408 9.98608 86.4779 9.96752 86.5151 9.96752C86.5522 9.96752 86.5893 9.98608 86.6264 10.0046C86.6635 10.0418 86.6635 10.0603 86.6635 10.116C86.6635 10.1531 86.645 10.1903 86.6264 10.2274C86.5707 10.2831 86.4779 10.2831 86.4222 10.2274C86.4037 10.2088 86.3851 10.1717 86.3851 10.116ZM88.7981 17.2622C88.8909 17.2993 89.0023 17.3179 89.1508 17.3179C89.2807 17.3179 89.3921 17.2993 89.4849 17.2436C89.5777 17.2065 89.6519 17.1322 89.7076 17.0394C89.7633 16.9466 89.7819 16.8538 89.7819 16.761C89.7819 16.6682 89.7633 16.5754 89.7076 16.5012C89.6705 16.4455 89.6334 16.3898 89.5777 16.3527C89.6148 16.3155 89.6519 16.2599 89.6705 16.2227C89.6891 16.1671 89.7076 16.1114 89.7076 16.0371C89.7076 15.9443 89.6891 15.8515 89.6334 15.7773C89.5777 15.703 89.522 15.6288 89.4292 15.5916C89.2622 15.4988 89.0209 15.4988 88.8538 15.5916C88.761 15.6288 88.7053 15.703 88.6496 15.7773C88.5939 15.8515 88.5754 15.9443 88.5754 16.0371C88.5754 16.1114 88.5939 16.1671 88.6125 16.2413C88.6311 16.2784 88.6496 16.3155 88.6867 16.3527C88.6311 16.4084 88.5939 16.464 88.5568 16.5197C88.5197 16.594 88.5011 16.6868 88.5011 16.7796C88.5011 16.891 88.5197 16.9838 88.5754 17.0766C88.6311 17.1694 88.7053 17.2251 88.7981 17.2622ZM89.225 16.1485C89.1879 16.1856 89.1137 16.1856 89.058 16.1485C89.0394 16.1299 89.0209 16.0928 89.0209 16.0742C89.0209 16.0371 89.0394 16.0186 89.058 16C89.0765 15.9814 89.0951 15.9629 89.1322 15.9629C89.1693 15.9629 89.2065 15.9629 89.225 16C89.2436 16.0186 89.2622 16.0371 89.2622 16.0742C89.2436 16.0928 89.2436 16.1299 89.225 16.1485ZM89.1322 16.594C89.1879 16.594 89.2436 16.6125 89.2807 16.6497C89.3178 16.6868 89.3364 16.7239 89.3364 16.761C89.3364 16.8167 89.3178 16.8353 89.2807 16.8724C89.2065 16.9281 89.058 16.9281 88.9837 16.8724C88.9466 16.8353 88.928 16.7981 88.928 16.761C88.928 16.7239 88.9466 16.6868 88.9837 16.6497C89.0394 16.6125 89.0765 16.594 89.1322 16.594ZM87.4988 19.4524C87.5916 19.5081 87.7215 19.5452 87.8515 19.5452C88 19.5452 88.1113 19.5081 88.2042 19.4524C88.297 19.3968 88.3712 19.2854 88.4269 19.1555C88.4826 19.0255 88.5011 18.8585 88.5011 18.6357C88.5011 18.413 88.4826 18.2459 88.4269 18.116C88.3712 17.9861 88.297 17.8933 88.2042 17.819C88.1113 17.7633 87.9814 17.7262 87.8515 17.7262C87.6473 17.7262 87.4803 17.8005 87.3503 17.9675C87.239 18.116 87.2018 18.3387 87.2018 18.6357C87.2018 18.8585 87.2204 19.0255 87.2761 19.1369C87.3132 19.3039 87.3874 19.3968 87.4988 19.4524ZM87.6473 18.6729C87.6473 18.5244 87.6659 18.413 87.6844 18.3387C87.703 18.2645 87.7215 18.2274 87.7587 18.2088C87.7958 18.1903 87.8144 18.1717 87.8515 18.1717C87.8886 18.1717 87.9443 18.1903 87.9814 18.2645C88.0185 18.3202 88.0371 18.413 88.0371 18.6729C88.0371 18.8585 88.0185 19.007 87.9628 19.0812C87.9257 19.1555 87.87 19.1555 87.8329 19.1555C87.7958 19.1555 87.7401 19.1555 87.703 19.0626C87.6844 19.007 87.6473 18.9142 87.6473 18.6729ZM84.6775 8.09281C84.7332 8.22274 84.8074 8.31554 84.9002 8.37123C84.993 8.42691 85.1229 8.46404 85.2529 8.46404C85.4014 8.46404 85.5127 8.42691 85.6055 8.37123C85.6984 8.31554 85.7726 8.20418 85.8283 8.07425C85.884 7.94431 85.9025 7.77726 85.9025 7.55452C85.9025 7.33179 85.884 7.16473 85.8283 7.0348C85.7726 6.90487 85.6984 6.81206 85.6055 6.73782C85.5127 6.68213 85.3828 6.64501 85.2529 6.64501C85.0487 6.64501 84.8816 6.71926 84.7517 6.88631C84.6403 7.0348 84.6032 7.25754 84.6032 7.55452C84.6032 7.81438 84.6218 7.98144 84.6775 8.09281ZM85.0487 7.59165C85.0487 7.44316 85.0673 7.33179 85.0858 7.25754C85.1044 7.18329 85.1229 7.14617 85.1601 7.12761C85.1786 7.10905 85.2157 7.09049 85.2529 7.09049C85.29 7.09049 85.3457 7.10905 85.3828 7.18329C85.4199 7.23898 85.4385 7.33179 85.4385 7.59165C85.4385 7.77726 85.4199 7.92575 85.3642 8C85.3271 8.07425 85.2714 8.07425 85.2343 8.07425C85.1972 8.07425 85.1415 8.07425 85.1044 7.98144C85.0858 7.92575 85.0487 7.83295 85.0487 7.59165ZM84.6775 12.529C84.7332 12.6589 84.8074 12.7517 84.9002 12.8074C84.993 12.8631 85.1229 12.9002 85.2529 12.9002C85.4014 12.9002 85.5127 12.8631 85.6055 12.8074C85.6984 12.7517 85.7726 12.6404 85.8283 12.5104C85.884 12.3805 85.9025 12.2135 85.9025 11.9907C85.9025 11.768 85.884 11.6009 85.8283 11.471C85.7726 11.3411 85.6984 11.2483 85.6055 11.174C85.5127 11.1183 85.3828 11.0812 85.2529 11.0812C85.0487 11.0812 84.8816 11.1555 84.7517 11.3225C84.6403 11.471 84.6032 11.6937 84.6032 11.9907C84.6032 12.232 84.6218 12.3991 84.6775 12.529ZM85.0487 12.0278C85.0487 11.8794 85.0673 11.768 85.0858 11.6937C85.1044 11.6195 85.1229 11.5824 85.1601 11.5638C85.1786 11.5452 85.2157 11.5267 85.2529 11.5267C85.29 11.5267 85.3457 11.5452 85.3828 11.6195C85.4199 11.6752 85.4385 11.768 85.4385 12.0278C85.4385 12.2135 85.4199 12.3619 85.3642 12.4362C85.3271 12.5104 85.2714 12.5104 85.2343 12.5104C85.1972 12.5104 85.1415 12.5104 85.1044 12.4176C85.0858 12.3619 85.0487 12.2506 85.0487 12.0278ZM89.1508 6.27378L89.6148 5.41995C89.6705 5.30858 89.7076 5.23434 89.7262 5.17865C89.7448 5.12297 89.7448 5.06729 89.7448 5.0116C89.7448 4.86311 89.6891 4.73318 89.5777 4.62181C89.4663 4.51044 89.3178 4.45476 89.1508 4.45476C88.9837 4.45476 88.8538 4.51044 88.7424 4.62181C88.6311 4.73318 88.5754 4.86311 88.5754 5.03016C88.5754 5.19722 88.6311 5.32715 88.7424 5.43851C88.8352 5.53132 88.9281 5.56845 89.0394 5.58701L88.761 6.10673L89.1508 6.27378ZM89.0023 5.0116C89.0023 4.97448 89.0209 4.93735 89.0394 4.90023C89.0765 4.86311 89.0951 4.86311 89.1508 4.86311C89.1879 4.86311 89.225 4.88167 89.2436 4.90023C89.2807 4.93735 89.2807 4.95592 89.2807 5.0116C89.2807 5.04872 89.2622 5.08585 89.2436 5.12297C89.1879 5.17865 89.0951 5.17865 89.0394 5.12297C89.0209 5.10441 89.0023 5.06729 89.0023 5.0116ZM87.3132 12.7517L87.9257 11.5638H87.2761V11.1369H88.5011V11.3968L87.7216 12.9188L87.3132 12.7517ZM88.5568 6.7007H89.7819V6.96056L89.0023 8.50116L88.6125 8.31555L89.225 7.12761H88.5754V6.7007H88.5568ZM87.1647 19.5081H85.884V19.2668L86.4222 18.7471C86.5336 18.6357 86.6264 18.5429 86.6635 18.4687C86.7007 18.413 86.7192 18.3573 86.7192 18.3016C86.7192 18.2645 86.7007 18.2274 86.6821 18.1903C86.6264 18.1346 86.5151 18.1346 86.4408 18.2088C86.4037 18.2459 86.3851 18.3016 86.3851 18.3573V18.413H85.9396V18.3387C85.9396 18.1531 86.0139 18.0046 86.1253 17.8933C86.2366 17.7819 86.3851 17.7262 86.5707 17.7262C86.6821 17.7262 86.7935 17.7448 86.8677 17.8005C86.9605 17.8376 87.0348 17.9118 87.0719 18.0046C87.1276 18.0974 87.1461 18.1717 87.1461 18.2645C87.1461 18.3759 87.109 18.4872 87.0533 18.5986C86.9977 18.71 86.8863 18.8399 86.7378 19.007L86.6635 19.0812H87.1647V19.5081ZM87.1833 15.8329L86.4037 17.355L86.0139 17.1694L86.6264 15.9814H85.9768V15.5731H87.2018L87.1833 15.8329ZM87.8329 15.5174L87.3689 16.3712C87.3132 16.4826 87.2761 16.5568 87.2575 16.6125C87.239 16.6682 87.239 16.7239 87.239 16.7796C87.239 16.9281 87.2946 17.058 87.406 17.1694C87.5174 17.2807 87.6659 17.3364 87.8329 17.3364C88 17.3364 88.1299 17.2807 88.2413 17.1694C88.3526 17.058 88.4083 16.9281 88.4083 16.7796C88.4083 16.6125 88.3526 16.4826 88.2413 16.3712C88.1485 16.2784 88.0557 16.2413 87.9443 16.2227L88.2227 15.703L87.8329 15.5174ZM87.9814 16.761C87.9814 16.7981 87.9628 16.8353 87.9443 16.8724C87.8886 16.9281 87.7958 16.9281 87.7401 16.8724C87.703 16.8353 87.703 16.8167 87.703 16.761C87.703 16.7239 87.7216 16.6868 87.7401 16.6497C87.7587 16.6311 87.7958 16.6125 87.8329 16.6125C87.87 16.6125 87.9072 16.6311 87.9443 16.6497C87.9628 16.6868 87.9814 16.7239 87.9814 16.761ZM85.8654 3.99072H84.5847V3.74942L85.1229 3.2297C85.2343 3.11833 85.3271 3.02552 85.3642 2.95128C85.4014 2.89559 85.4199 2.83991 85.4199 2.78422C85.4199 2.7471 85.4014 2.70998 85.3828 2.67285C85.3271 2.61717 85.2158 2.61717 85.1415 2.69142C85.1044 2.72854 85.0858 2.78422 85.0858 2.83991V2.89559H84.6403V2.82135C84.6403 2.63573 84.7146 2.48724 84.826 2.37587C84.9373 2.2645 85.0858 2.20882 85.2714 2.20882C85.3828 2.20882 85.4942 2.22738 85.5684 2.28306C85.6612 2.32019 85.7355 2.39443 85.7726 2.48724C85.8283 2.58005 85.8468 2.65429 85.8468 2.7471C85.8468 2.85847 85.8097 2.96984 85.754 3.08121C85.6984 3.19258 85.587 3.32251 85.4385 3.48956L85.3642 3.56381H85.8654V3.99072ZM86.6264 0.482599H85.9768V0.0556845H87.2018V0.315545L86.4222 1.85615L86.0325 1.67053L86.6264 0.482599ZM85.3271 0.482599H84.6775V0.0556845H85.9025V0.315545L85.1229 1.85615L84.7332 1.67053L85.3271 0.482599ZM86.0881 21.6056C85.9768 21.4942 85.9025 21.3643 85.9025 21.1787V21.1044H86.348V21.1601C86.3666 21.2343 86.3851 21.2715 86.4222 21.3086C86.4965 21.3643 86.6079 21.3643 86.6821 21.3086C86.7192 21.2715 86.7378 21.2343 86.7378 21.1972C86.7378 21.1415 86.7192 21.1044 86.6635 21.0673C86.6079 21.0302 86.5336 21.0116 86.4222 21.0116H86.348V20.6032H86.4037C86.4965 20.6032 86.5336 20.5847 86.5522 20.5661C86.5707 20.5476 86.5893 20.5476 86.6079 20.5104C86.6264 20.4919 86.6264 20.4733 86.6264 20.4548C86.6264 20.4362 86.6264 20.4176 86.6079 20.3991C86.5893 20.3805 86.5707 20.3805 86.5336 20.3805C86.4965 20.3805 86.4779 20.3805 86.4594 20.3991C86.4408 20.4176 86.4222 20.4362 86.4037 20.4733L86.3851 20.5104H85.9582L85.9768 20.4362C85.9953 20.3063 86.051 20.1949 86.1253 20.1206C86.2366 20.0093 86.3851 19.9536 86.5522 19.9536C86.7007 19.9536 86.8306 20.0093 86.942 20.1021C87.0533 20.1949 87.109 20.3063 87.109 20.4362C87.109 20.5104 87.0905 20.6032 87.0348 20.6589C87.0162 20.6961 86.9791 20.7332 86.942 20.7517C86.9977 20.7889 87.0533 20.826 87.0905 20.8817C87.1647 20.9559 87.1833 21.0673 87.1833 21.1787C87.1833 21.3457 87.1276 21.4756 86.9977 21.587C86.8677 21.6984 86.7192 21.7541 86.5336 21.7541C86.348 21.7726 86.1995 21.7169 86.0881 21.6056ZM85.2343 21.7726C85.4014 21.7726 85.5313 21.7169 85.6427 21.6056C85.754 21.4942 85.8097 21.3643 85.8097 21.2158C85.8097 21.0487 85.754 20.9188 85.6427 20.8074C85.5499 20.7146 85.457 20.6775 85.3457 20.6589L85.6241 20.1392L85.2343 19.9536L84.7703 20.8074C84.7146 20.9188 84.6775 20.993 84.6589 21.0487C84.6403 21.1044 84.6403 21.1601 84.6403 21.2158C84.6403 21.3643 84.696 21.4942 84.8074 21.6056C84.9188 21.7169 85.0673 21.7726 85.2343 21.7726ZM85.0858 21.1972C85.0858 21.1601 85.1044 21.123 85.1229 21.0858C85.1415 21.0673 85.1786 21.0487 85.2158 21.0487C85.2529 21.0487 85.29 21.0673 85.3271 21.0858C85.3642 21.123 85.3642 21.1415 85.3642 21.1972C85.3642 21.2343 85.3457 21.2715 85.3271 21.3086C85.2714 21.3643 85.1786 21.3643 85.1229 21.3086C85.1044 21.2715 85.0858 21.2529 85.0858 21.1972ZM84.6775 22.2181H85.9025V22.478L85.1229 24.0186L84.7332 23.8329L85.3457 22.645H84.696V22.2181H84.6775ZM87.7216 1.81903C87.8886 1.81903 88.0185 1.76334 88.1299 1.65197C88.2413 1.5406 88.297 1.41067 88.297 1.26218C88.297 1.09513 88.2413 0.965197 88.1299 0.853828C88.0371 0.761021 87.9443 0.723898 87.8329 0.705336L88.1113 0.185615L87.7216 0L87.2575 0.853828C87.2018 0.965197 87.1647 1.03944 87.1461 1.09513C87.1276 1.15081 87.1276 1.2065 87.1276 1.26218C87.1276 1.41067 87.1833 1.5406 87.2946 1.65197C87.406 1.76334 87.5545 1.81903 87.7216 1.81903ZM87.5731 1.26218C87.5731 1.22506 87.5916 1.18793 87.6102 1.15081C87.6287 1.13225 87.6659 1.11369 87.703 1.11369C87.7401 1.11369 87.7772 1.13225 87.8144 1.15081C87.8515 1.18793 87.8515 1.2065 87.8515 1.26218C87.8515 1.2993 87.8329 1.33643 87.8144 1.37355C87.7587 1.42923 87.6659 1.42923 87.6102 1.37355C87.5916 1.33643 87.5731 1.2993 87.5731 1.26218ZM84.8074 19.4153C84.696 19.3225 84.6218 19.2111 84.5847 19.0626L84.5661 18.9884H85.0301L85.0487 19.0255C85.0673 19.0626 85.0858 19.0998 85.1229 19.1183C85.1972 19.1555 85.29 19.1555 85.3457 19.0998C85.3828 19.0626 85.4014 19.0255 85.4014 18.9513C85.4014 18.8956 85.3828 18.8399 85.3457 18.8213C85.29 18.7657 85.2343 18.7471 85.1601 18.7842C85.1415 18.8028 85.1044 18.8213 85.0858 18.8399L85.0673 18.8585L84.7146 18.7842L84.9373 17.7819H85.8468V18.1903H85.29L85.2529 18.3387H85.2714C85.4385 18.3387 85.587 18.3944 85.6984 18.5058C85.8097 18.6172 85.8654 18.7657 85.8654 18.9327C85.8654 19.0998 85.8097 19.2483 85.6798 19.3782C85.5499 19.4896 85.4014 19.5638 85.2343 19.5638C85.0673 19.5452 84.9188 19.5081 84.8074 19.4153ZM87.1276 2.61717C87.0719 2.48724 86.9977 2.39443 86.9048 2.32019C86.812 2.2645 86.6821 2.22738 86.5522 2.22738C86.348 2.22738 86.1809 2.30162 86.051 2.46868C85.9397 2.61717 85.9025 2.83991 85.9025 3.13689C85.9025 3.35963 85.9211 3.52668 85.9768 3.63805C86.0325 3.76798 86.1067 3.86079 86.1995 3.91647C86.2923 3.97216 86.4222 4.00928 86.5522 4.00928C86.7007 4.00928 86.812 3.97216 86.9048 3.91647C86.9977 3.86079 87.0719 3.74942 87.1276 3.61949C87.1461 3.5638 87.1647 3.50812 87.1833 3.43387V3.63805H87.9072V3.97216H88.3526V3.63805H88.5011V3.2297H88.3526V2.20882H87.9257L87.2018 3.24826C87.2018 3.21114 87.2018 3.15545 87.2018 3.11833C87.2018 2.91415 87.1647 2.7471 87.1276 2.61717ZM86.7378 3.13689C86.7378 3.32251 86.7192 3.471 86.6635 3.54524C86.6264 3.61949 86.5707 3.61949 86.5336 3.61949C86.4965 3.61949 86.4408 3.61949 86.4037 3.52668C86.3666 3.48956 86.3294 3.37819 86.3294 3.13689C86.3294 2.9884 86.348 2.87703 86.3666 2.80278C86.3851 2.72854 86.4037 2.69142 86.4408 2.67285C86.4779 2.65429 86.4965 2.63573 86.5336 2.63573C86.5707 2.63573 86.6264 2.65429 86.6635 2.72854C86.7007 2.78422 86.7378 2.89559 86.7378 3.13689ZM87.7216 3.26682L87.9072 3.00696V3.26682H87.7216ZM92.2877 3.56381L92.2691 3.48956H92.7332L92.7517 3.52668C92.7703 3.5638 92.7888 3.60093 92.826 3.61949C92.9002 3.65661 92.993 3.65661 93.0487 3.60093C93.0858 3.5638 93.1044 3.52668 93.1044 3.45244C93.1044 3.39675 93.0858 3.34107 93.0487 3.32251C92.993 3.26682 92.9373 3.24826 92.8631 3.28538C92.8445 3.30394 92.8074 3.32251 92.7888 3.34107L92.7703 3.35963L92.4176 3.28538L92.6403 2.28306H93.5499V2.69142H92.993L92.9559 2.83991H92.9744C93.1415 2.83991 93.29 2.89559 93.4014 3.00696C93.5127 3.11833 93.5684 3.26682 93.5684 3.43387C93.5684 3.60093 93.5127 3.74942 93.3828 3.87935C93.2529 3.99072 93.1044 4.06496 92.9373 4.06496C92.7888 4.06496 92.6403 4.02784 92.529 3.93503C92.399 3.82367 92.3248 3.7123 92.2877 3.56381ZM93.1044 0.482599H92.4547V0.0556845H93.6798V0.315545L92.9002 1.85615L92.5104 1.67053L93.1044 0.482599ZM91.6195 1.15081L91.341 1.67053L91.7308 1.85615L92.1949 1.00232C92.2506 0.890951 92.2877 0.816705 92.3062 0.761021C92.3248 0.705336 92.3248 0.649652 92.3248 0.593967C92.3248 0.445476 92.2691 0.315545 92.1577 0.204176C92.0464 0.0928074 91.8979 0.037123 91.7308 0.037123C91.5638 0.037123 91.4338 0.0928074 91.3225 0.204176C91.2111 0.315545 91.1554 0.445476 91.1554 0.612529C91.1554 0.779582 91.2111 0.909513 91.3225 1.02088C91.4153 1.07657 91.5081 1.13225 91.6195 1.15081ZM91.6009 0.593967C91.6009 0.556845 91.6195 0.519722 91.638 0.482599C91.6751 0.445476 91.6937 0.445476 91.7494 0.445476C91.7865 0.445476 91.8236 0.464037 91.8422 0.482599C91.8793 0.519722 91.8793 0.556845 91.8793 0.593967C91.8793 0.63109 91.8608 0.668213 91.8422 0.705336C91.7865 0.761021 91.6937 0.761021 91.638 0.705336C91.6195 0.668213 91.6009 0.63109 91.6009 0.593967ZM93.5313 1.09513V1.46636H94.2552V1.80046H94.7007V1.46636H94.8492V1.03944H94.7007V0.0185615H94.2923L93.5313 1.09513ZM94.0881 1.03944L94.2738 0.779582V1.03944H94.0881ZM90.5243 1.81903C90.6914 1.81903 90.8213 1.76334 90.9327 1.65197C91.0441 1.5406 91.0997 1.41067 91.0997 1.26218C91.0997 1.09513 91.0441 0.965197 90.9327 0.853828C90.8399 0.761021 90.7471 0.723898 90.6357 0.705336L90.9141 0.185615L90.5243 0L90.0603 0.853828C90.0046 0.965197 89.9675 1.03944 89.9489 1.09513C89.9304 1.15081 89.9304 1.2065 89.9304 1.26218C89.9304 1.41067 89.9861 1.5406 90.0974 1.65197C90.2088 1.76334 90.3573 1.81903 90.5243 1.81903ZM90.3758 1.26218C90.3758 1.22506 90.3944 1.18793 90.413 1.15081C90.4315 1.13225 90.4687 1.11369 90.5058 1.11369C90.5429 1.11369 90.58 1.13225 90.6171 1.15081C90.6543 1.18793 90.6543 1.2065 90.6543 1.26218C90.6543 1.2993 90.6357 1.33643 90.6171 1.37355C90.5615 1.42923 90.4687 1.42923 90.413 1.37355C90.3944 1.33643 90.3758 1.2993 90.3758 1.26218ZM88.7981 1.76334C88.8909 1.80046 89.0023 1.81903 89.1508 1.81903C89.2807 1.81903 89.3921 1.80046 89.4849 1.74478C89.5777 1.70766 89.6519 1.63341 89.7076 1.5406C89.7633 1.4478 89.7819 1.35499 89.7819 1.26218C89.7819 1.16937 89.7633 1.07657 89.7076 1.00232C89.6705 0.946636 89.6334 0.890951 89.5777 0.853828C89.6148 0.816705 89.6519 0.761021 89.6705 0.723898C89.6891 0.668213 89.7076 0.612529 89.7076 0.538283C89.7076 0.445476 89.6891 0.352668 89.6334 0.278422C89.5777 0.204176 89.522 0.12993 89.4292 0.0928074C89.2622 0 89.0209 0 88.8538 0.0928074C88.761 0.12993 88.7053 0.204176 88.6496 0.278422C88.5939 0.352668 88.5754 0.445476 88.5754 0.538283C88.5754 0.612529 88.5939 0.668213 88.6125 0.742459C88.6311 0.779582 88.6496 0.816705 88.6867 0.853828C88.6311 0.909513 88.5939 0.965197 88.5568 1.02088C88.5197 1.09513 88.5011 1.18793 88.5011 1.28074C88.5011 1.39211 88.5197 1.48492 88.5754 1.57773C88.6311 1.65197 88.7053 1.72622 88.7981 1.76334ZM89.225 0.63109C89.1879 0.668213 89.1137 0.668213 89.058 0.63109C89.0394 0.612529 89.0209 0.575406 89.0209 0.556845C89.0209 0.519722 89.0394 0.50116 89.058 0.482599C89.0765 0.464037 89.0951 0.445476 89.1322 0.445476C89.1693 0.445476 89.2065 0.464037 89.225 0.482599C89.2436 0.50116 89.2622 0.519722 89.2622 0.556845C89.2436 0.593967 89.2436 0.612529 89.225 0.63109ZM89.1322 1.07657C89.1879 1.07657 89.2436 1.09513 89.2807 1.13225C89.3178 1.16937 89.3364 1.2065 89.3364 1.24362C89.3364 1.2993 89.3178 1.31787 89.2807 1.35499C89.2065 1.41067 89.058 1.41067 88.9837 1.35499C88.9466 1.31787 88.928 1.28074 88.928 1.24362C88.928 1.2065 88.9466 1.16937 88.9837 1.13225C89.0394 1.09513 89.0765 1.07657 89.1322 1.07657ZM90.9327 2.24594H90.5058L89.7633 3.30394L89.7448 3.32251V3.69374H90.4686V4.02784H90.9141V3.69374H91.0626V3.28538H90.9141V2.24594H90.9327ZM90.3016 3.26682L90.4872 3.00696V3.26682H90.3016ZM91.6195 3.35963L91.341 3.87935L91.7308 4.06496L92.1949 3.21114C92.2506 3.09977 92.2877 3.02552 92.3062 2.96984C92.3248 2.91415 92.3248 2.85847 92.3248 2.80278C92.3248 2.65429 92.2691 2.52436 92.1577 2.41299C92.0464 2.30162 91.8979 2.24594 91.7308 2.24594C91.5638 2.24594 91.4338 2.30162 91.3225 2.41299C91.2111 2.52436 91.1554 2.65429 91.1554 2.82135C91.1554 2.9884 91.2111 3.11833 91.3225 3.2297C91.4153 3.28538 91.5081 3.34107 91.6195 3.35963ZM91.6009 2.80278C91.6009 2.76566 91.6195 2.72854 91.638 2.69142C91.6751 2.65429 91.6937 2.65429 91.7494 2.65429C91.7865 2.65429 91.8236 2.67285 91.8422 2.69142C91.8793 2.72854 91.8793 2.76566 91.8793 2.80278C91.8793 2.83991 91.8608 2.87703 91.8422 2.91415C91.7865 2.96984 91.6937 2.96984 91.638 2.91415C91.6195 2.87703 91.6009 2.83991 91.6009 2.80278ZM100.362 20.065C100.269 20.0093 100.139 19.9722 100.009 19.9722C99.8051 19.9722 99.638 20.0464 99.5081 20.2135C99.3967 20.3619 99.3596 20.5847 99.3596 20.8817C99.3596 21.1044 99.3782 21.2715 99.4338 21.3828C99.4895 21.5128 99.5638 21.6056 99.6566 21.6613C99.7494 21.7169 99.8793 21.7541 100.009 21.7541C100.158 21.7541 100.269 21.7169 100.362 21.6613C100.455 21.6056 100.529 21.4942 100.585 21.3643C100.64 21.2343 100.659 21.0673 100.659 20.8445C100.659 20.6218 100.64 20.4548 100.585 20.3248C100.548 20.2135 100.473 20.1206 100.362 20.065ZM100.213 20.8631C100.213 21.0487 100.195 21.1972 100.139 21.2715C100.102 21.3457 100.046 21.3457 100.009 21.3457C99.9721 21.3457 99.9164 21.3457 99.8793 21.2529C99.8422 21.2158 99.8236 21.1044 99.8236 20.8631C99.8236 20.7146 99.8422 20.6032 99.8608 20.529C99.8793 20.4548 99.8979 20.4176 99.935 20.3991C99.9721 20.3805 99.9907 20.3619 100.028 20.3619C100.065 20.3619 100.121 20.3805 100.158 20.4548C100.195 20.5104 100.213 20.6218 100.213 20.8631ZM98.3387 23.536H98.8399V23.9443H97.5591V23.703L98.0974 23.1833C98.2088 23.0719 98.3016 22.9791 98.3387 22.9049C98.3758 22.8492 98.3944 22.7935 98.3944 22.7378C98.3944 22.7007 98.3758 22.6636 98.3573 22.6264C98.3016 22.5708 98.1902 22.5708 98.116 22.645C98.0789 22.6821 98.0603 22.7378 98.0603 22.7935V22.8492H97.6148V22.7749C97.6148 22.5893 97.6891 22.4408 97.8004 22.3295C97.9118 22.2181 98.0603 22.1624 98.2459 22.1624C98.3573 22.1624 98.4687 22.181 98.5429 22.2367C98.6357 22.2738 98.7099 22.348 98.7471 22.4408C98.8028 22.5336 98.8213 22.6079 98.8213 22.7007C98.8213 22.8121 98.7842 22.9234 98.7285 23.0348C98.6728 23.1462 98.5615 23.2761 98.413 23.4432L98.3387 23.536ZM98.7842 21.3086H99.2854V21.7169H98.0046V21.4756L98.5429 20.9559C98.6543 20.8445 98.7471 20.7517 98.7842 20.6775C98.8213 20.6218 98.8399 20.5661 98.8399 20.5104C98.8399 20.4733 98.8213 20.4362 98.8028 20.3991C98.7471 20.3434 98.6357 20.3434 98.5615 20.4176C98.5243 20.4548 98.5058 20.5104 98.5058 20.5661V20.6218H98.0603V20.5476C98.0603 20.3619 98.1345 20.2135 98.2459 20.1021C98.3573 19.9907 98.5058 19.935 98.6914 19.935C98.8028 19.935 98.8956 19.9536 98.9884 20.0093C99.0812 20.0464 99.1554 20.1206 99.1926 20.2135C99.2482 20.3063 99.2668 20.3805 99.2668 20.4733C99.2668 20.5847 99.2297 20.6961 99.174 20.8074C99.1183 20.9188 99.0069 21.0487 98.8584 21.2158L98.7842 21.3086ZM95.6844 22.8492L95.9628 22.3295L95.5731 22.1439L95.109 22.9977C95.0533 23.109 95.0162 23.1833 94.9976 23.239C94.9791 23.2947 94.9791 23.3503 94.9791 23.406C94.9791 23.5545 95.0348 23.6845 95.1461 23.7958C95.2575 23.9072 95.406 23.9629 95.5731 23.9629C95.7401 23.9629 95.87 23.9072 95.9814 23.7958C96.0928 23.6845 96.1485 23.5545 96.1485 23.406C96.1485 23.239 96.0928 23.109 95.9814 22.9977C95.9072 22.9234 95.7958 22.8863 95.6844 22.8492ZM95.7216 23.4246C95.7216 23.4617 95.703 23.4988 95.6844 23.536C95.6287 23.5916 95.5359 23.5916 95.4803 23.536C95.4431 23.4988 95.4431 23.4617 95.4431 23.4246C95.4431 23.3875 95.4617 23.3503 95.4803 23.3132C95.4988 23.2947 95.5359 23.2761 95.5731 23.2761C95.6102 23.2761 95.6473 23.2947 95.6844 23.3132C95.703 23.3318 95.7216 23.3689 95.7216 23.4246ZM85.9768 22.2181H87.2018V22.478L86.4222 24.0186L86.0325 23.8329L86.645 22.645H85.9953V22.2181H85.9768ZM95.4431 2.91415H94.9976V2.83991C94.9976 2.65429 95.0719 2.5058 95.1833 2.39443C95.2946 2.28306 95.4431 2.22738 95.6287 2.22738C95.7401 2.22738 95.8329 2.24594 95.9257 2.30162C96.0185 2.33875 96.0928 2.41299 96.1299 2.5058C96.1856 2.59861 96.2041 2.67285 96.2041 2.76566C96.2041 2.87703 96.167 2.9884 96.1113 3.09977C96.0557 3.21114 95.9443 3.34107 95.7958 3.50812L95.7216 3.58237H96.2227V3.99072H94.942V3.74942L95.4803 3.2297C95.5916 3.11833 95.6844 3.02552 95.7216 2.95128C95.7587 2.89559 95.7772 2.83991 95.7772 2.78422C95.7772 2.7471 95.7587 2.70998 95.7401 2.67285C95.6844 2.61717 95.5731 2.61717 95.4988 2.69142C95.4617 2.72854 95.4431 2.78422 95.4431 2.83991V2.91415ZM102.515 16.3712C102.422 16.2784 102.329 16.2413 102.218 16.2227L102.496 15.703L102.107 15.5174L101.643 16.3712C101.587 16.4826 101.55 16.5568 101.531 16.6125C101.513 16.6682 101.513 16.7239 101.513 16.7796C101.513 16.9281 101.568 17.058 101.68 17.1694C101.791 17.2807 101.94 17.3364 102.107 17.3364C102.274 17.3364 102.404 17.2807 102.515 17.1694C102.626 17.058 102.682 16.9281 102.682 16.7796C102.682 16.6125 102.626 16.4826 102.515 16.3712ZM102.237 16.761C102.237 16.7981 102.218 16.8353 102.2 16.8724C102.144 16.9281 102.051 16.9281 101.995 16.8724C101.958 16.8353 101.958 16.8167 101.958 16.761C101.958 16.7239 101.977 16.6868 101.995 16.6497C102.014 16.6311 102.051 16.6125 102.088 16.6125C102.125 16.6125 102.162 16.6311 102.2 16.6497C102.218 16.6868 102.237 16.7239 102.237 16.761ZM100.269 19.0998H100.77V19.5081H99.4895V19.2668L100.028 18.7471C100.139 18.6357 100.232 18.5429 100.269 18.4687C100.306 18.413 100.325 18.3573 100.325 18.3016C100.325 18.2645 100.306 18.2274 100.288 18.1903C100.232 18.1346 100.121 18.1346 100.046 18.2088C100.009 18.2459 99.9907 18.3016 99.9907 18.3573V18.413H99.5452V18.3387C99.5452 18.1531 99.6195 18.0046 99.7308 17.8933C99.8422 17.7819 99.9907 17.7262 100.176 17.7262C100.288 17.7262 100.399 17.7448 100.473 17.8005C100.566 17.8376 100.64 17.9118 100.677 18.0046C100.733 18.0974 100.752 18.1717 100.752 18.2645C100.752 18.3759 100.715 18.4872 100.659 18.5986C100.603 18.71 100.492 18.8399 100.343 19.007L100.269 19.0998ZM101.791 17.8376C101.698 17.7819 101.568 17.7448 101.438 17.7448C101.234 17.7448 101.067 17.819 100.937 17.9861C100.826 18.1346 100.789 18.3573 100.789 18.6543C100.789 18.877 100.807 19.0441 100.863 19.1555C100.919 19.2854 100.993 19.3782 101.086 19.4339C101.179 19.4896 101.309 19.5267 101.438 19.5267C101.587 19.5267 101.698 19.4896 101.791 19.4339C101.884 19.3782 101.958 19.2668 102.014 19.1369C102.07 19.007 102.088 18.8399 102.088 18.6172C102.088 18.3944 102.07 18.2274 102.014 18.0974C101.977 18.0046 101.903 17.9118 101.791 17.8376ZM101.661 18.6543C101.661 18.8399 101.643 18.9884 101.587 19.0626C101.55 19.1369 101.494 19.1369 101.457 19.1369C101.42 19.1369 101.364 19.1369 101.327 19.0441C101.29 19.007 101.253 18.8956 101.253 18.6543C101.253 18.5058 101.271 18.3944 101.29 18.3202C101.309 18.2459 101.327 18.2088 101.364 18.1903C101.401 18.1717 101.42 18.1531 101.457 18.1531C101.494 18.1531 101.55 18.1717 101.587 18.2459C101.624 18.3016 101.661 18.413 101.661 18.6543ZM97.355 22.942C97.4663 23.0534 97.522 23.2019 97.522 23.3689C97.522 23.536 97.4663 23.6845 97.3364 23.8144C97.2065 23.9258 97.058 24 96.8909 24C96.7424 24 96.5939 23.9629 96.4826 23.8701C96.3712 23.7773 96.297 23.6659 96.2598 23.5174L96.2413 23.4432H96.7053L96.7239 23.4803C96.7424 23.5174 96.761 23.5545 96.7981 23.5731C96.8724 23.6102 96.9652 23.6102 97.0209 23.5545C97.058 23.5174 97.0765 23.4803 97.0765 23.406C97.0765 23.3503 97.058 23.2947 97.0209 23.2761C96.9652 23.2204 96.9095 23.2019 96.8352 23.239C96.8167 23.2575 96.7796 23.2761 96.761 23.2947L96.7424 23.3132L96.3898 23.239L96.6125 22.2367H97.522V22.645H96.9652L96.928 22.7935H96.9466C97.0951 22.7749 97.2436 22.8306 97.355 22.942ZM87.9443 20.6404L88.2227 20.1206L87.8329 19.935L87.3689 20.7889C87.3132 20.9002 87.2761 20.9745 87.2575 21.0302C87.239 21.0858 87.239 21.1415 87.239 21.1972C87.239 21.3457 87.2946 21.4756 87.406 21.587C87.5174 21.6984 87.6659 21.7541 87.8329 21.7541C88 21.7541 88.1299 21.6984 88.2413 21.587C88.3526 21.4756 88.4083 21.3457 88.4083 21.1972C88.4083 21.0302 88.3526 20.9002 88.2413 20.7889C88.167 20.7146 88.0742 20.6589 87.9443 20.6404ZM87.9814 21.1972C87.9814 21.2343 87.9628 21.2715 87.9443 21.3086C87.8886 21.3643 87.7958 21.3643 87.7401 21.3086C87.703 21.2715 87.703 21.2343 87.703 21.1972C87.703 21.1601 87.7216 21.123 87.7401 21.0858C87.7587 21.0673 87.7958 21.0487 87.8329 21.0487C87.87 21.0487 87.9072 21.0673 87.9443 21.0858C87.9628 21.123 87.9814 21.1601 87.9814 21.1972ZM89.5777 22.9977C89.6148 22.9606 89.6519 22.9049 89.6705 22.8677C89.6891 22.8121 89.7076 22.7564 89.7076 22.6821C89.7076 22.5893 89.6891 22.4965 89.6334 22.4223C89.5777 22.348 89.522 22.2738 89.4292 22.2367C89.2622 22.1439 89.0209 22.1439 88.8538 22.2367C88.761 22.2738 88.7053 22.348 88.6496 22.4223C88.5939 22.4965 88.5754 22.5893 88.5754 22.6821C88.5754 22.7564 88.5939 22.8121 88.6125 22.8863C88.6311 22.9234 88.6496 22.9606 88.6867 22.9977C88.6311 23.0534 88.5939 23.109 88.5568 23.1647C88.5197 23.239 88.5011 23.3318 88.5011 23.4246C88.5011 23.536 88.5197 23.6288 88.5754 23.7216C88.6311 23.8144 88.7053 23.8701 88.7981 23.9258C88.8909 23.9629 89.0023 23.9814 89.1508 23.9814C89.2807 23.9814 89.3921 23.9629 89.4849 23.9072C89.5777 23.8701 89.6519 23.7958 89.7076 23.703C89.7633 23.6102 89.7819 23.5174 89.7819 23.4246C89.7819 23.3318 89.7633 23.239 89.7076 23.1647C89.6705 23.0905 89.6334 23.0534 89.5777 22.9977ZM89.225 22.7935C89.1879 22.8306 89.1137 22.8306 89.058 22.7935C89.0394 22.7749 89.0209 22.7378 89.0209 22.7193C89.0209 22.6821 89.0394 22.6636 89.058 22.645C89.0765 22.6264 89.0951 22.6079 89.1322 22.6079C89.1693 22.6079 89.2065 22.6264 89.225 22.645C89.2436 22.6636 89.2622 22.6821 89.2622 22.7193C89.2436 22.7378 89.2436 22.7749 89.225 22.7935ZM89.0023 23.2947C89.0394 23.2575 89.0951 23.239 89.1508 23.239C89.2065 23.239 89.2622 23.2575 89.2993 23.2947C89.3364 23.3318 89.355 23.3689 89.355 23.406C89.355 23.4617 89.3364 23.4803 89.2993 23.5174C89.225 23.5731 89.0765 23.5731 89.0023 23.5174C88.9652 23.4803 88.9466 23.4432 88.9466 23.406C88.9466 23.3503 88.9652 23.3132 89.0023 23.2947ZM87.8515 22.8492L88.1299 22.3295L87.7401 22.1439L87.2761 22.9977C87.2204 23.109 87.1833 23.1833 87.1647 23.239C87.1461 23.2947 87.1461 23.3503 87.1461 23.406C87.1461 23.5545 87.2018 23.6845 87.3132 23.7958C87.4246 23.9072 87.5731 23.9629 87.7401 23.9629C87.9072 23.9629 88.0371 23.9072 88.1485 23.7958C88.2598 23.6845 88.3155 23.5545 88.3155 23.406C88.3155 23.239 88.2598 23.109 88.1485 22.9977C88.0742 22.9234 87.9628 22.8863 87.8515 22.8492ZM87.87 23.4246C87.87 23.4617 87.8515 23.4988 87.8329 23.536C87.7772 23.5916 87.6844 23.5916 87.6287 23.536C87.5916 23.4988 87.5916 23.4617 87.5916 23.4246C87.5916 23.3875 87.6102 23.3503 87.6287 23.3132C87.6473 23.2947 87.6844 23.2761 87.7216 23.2761C87.7587 23.2761 87.7958 23.2947 87.8329 23.3132C87.87 23.3318 87.87 23.3689 87.87 23.4246ZM90.6171 22.8492L90.8956 22.3295L90.5058 22.1439L90.0417 22.9977C89.9861 23.109 89.9489 23.1833 89.9304 23.239C89.9118 23.2947 89.9118 23.3503 89.9118 23.406C89.9118 23.5545 89.9675 23.6845 90.0789 23.7958C90.1902 23.9072 90.3387 23.9629 90.5058 23.9629C90.6728 23.9629 90.8028 23.9072 90.9141 23.7958C91.0255 23.6845 91.0812 23.5545 91.0812 23.406C91.0812 23.239 91.0255 23.109 90.9141 22.9977C90.8213 22.9234 90.7285 22.8863 90.6171 22.8492ZM90.6357 23.4246C90.6357 23.4617 90.6171 23.4988 90.5986 23.536C90.5429 23.5916 90.4501 23.5916 90.3944 23.536C90.3573 23.4988 90.3573 23.4617 90.3573 23.4246C90.3573 23.3875 90.3758 23.3503 90.3944 23.3132C90.413 23.2947 90.4501 23.2761 90.4872 23.2761C90.5243 23.2761 90.5615 23.2947 90.5986 23.3132C90.6171 23.3318 90.6357 23.3689 90.6357 23.4246ZM93.6798 22.478L92.9002 24.0186L92.5104 23.8329L93.1229 22.645H92.4733V22.2367H93.6983L93.6798 22.478ZM94.7192 22.181H94.2923L93.5499 23.239L93.5313 23.2575V23.6288H94.2552V23.9629H94.7007V23.6288H94.8492V23.2019H94.7007V22.181H94.7192ZM94.0881 23.2019L94.2738 22.942V23.2019H94.0881ZM91.7494 22.181C91.5823 22.181 91.4524 22.2367 91.341 22.348C91.2297 22.4594 91.174 22.5893 91.174 22.7564C91.174 22.9234 91.2297 23.0534 91.341 23.1647C91.4338 23.2575 91.5267 23.2947 91.638 23.3132L91.3596 23.8329L91.7494 24.0186L92.2134 23.1647C92.2691 23.0534 92.3062 22.9791 92.3248 22.9234C92.3434 22.8677 92.3434 22.8121 92.3434 22.7564C92.3434 22.6079 92.2877 22.478 92.1763 22.3666C92.0464 22.2367 91.9164 22.181 91.7494 22.181ZM91.8793 22.7378C91.8793 22.7749 91.8608 22.8121 91.8422 22.8492C91.7865 22.9049 91.6937 22.9049 91.638 22.8492C91.6009 22.8121 91.6009 22.7935 91.6009 22.7378C91.6009 22.7007 91.6195 22.6636 91.638 22.6264C91.6751 22.5893 91.6937 22.5893 91.7494 22.5893C91.7865 22.5893 91.8236 22.6079 91.8422 22.6264C91.8793 22.6636 91.8793 22.7007 91.8793 22.7378ZM99.7123 12.3805L99.638 12.4548H100.139V12.8631H98.8584V12.6218L99.3967 12.1021C99.5081 11.9907 99.6009 11.8979 99.638 11.8237C99.6751 11.768 99.6937 11.7123 99.6937 11.6566C99.6937 11.6195 99.6751 11.5824 99.6566 11.5452C99.6009 11.4896 99.4895 11.4896 99.4153 11.5452C99.3782 11.5824 99.3596 11.6381 99.3596 11.6937V11.7494H98.9141V11.6752C98.9141 11.4896 98.9884 11.3411 99.0997 11.2297C99.2111 11.1183 99.3596 11.0626 99.5452 11.0626C99.6566 11.0626 99.7494 11.0812 99.8422 11.1369C99.935 11.174 100.009 11.2483 100.046 11.3411C100.102 11.4339 100.121 11.5081 100.121 11.6009C100.121 11.7123 100.084 11.8237 100.028 11.935C99.9721 12.0835 99.8608 12.2135 99.7123 12.3805ZM98.2274 9.13225C98.116 9.28074 98.0789 9.50348 98.0789 9.80046C98.0789 10.0232 98.0974 10.1903 98.1531 10.3016C98.2088 10.4316 98.283 10.5244 98.3758 10.58C98.4686 10.6357 98.5986 10.6729 98.7285 10.6729C98.877 10.6729 98.9884 10.6357 99.0812 10.58C99.174 10.5244 99.2482 10.413 99.3039 10.2831C99.3596 10.1531 99.3782 9.98608 99.3782 9.76334C99.3782 9.5406 99.3596 9.37355 99.3039 9.24362C99.2482 9.11369 99.174 9.02088 99.0812 8.94664C98.9884 8.89095 98.8584 8.85383 98.7285 8.85383C98.5058 8.89095 98.3387 8.9652 98.2274 9.13225ZM98.8584 9.39211C98.8956 9.44779 98.9141 9.5406 98.9141 9.80046C98.9141 9.98608 98.8956 10.1346 98.8399 10.2088C98.8028 10.2831 98.7471 10.2831 98.7099 10.2831C98.6728 10.2831 98.6171 10.2831 98.58 10.1903C98.5429 10.1531 98.5058 10.0418 98.5058 9.80046C98.5058 9.65197 98.5243 9.5406 98.5429 9.46636C98.5615 9.39211 98.58 9.35499 98.6171 9.33643C98.6543 9.31786 98.6728 9.2993 98.7099 9.2993C98.7656 9.2993 98.8028 9.31786 98.8584 9.39211ZM95.6102 1.81903C95.7772 1.81903 95.9072 1.76334 96.0185 1.65197C96.1299 1.5406 96.1856 1.41067 96.1856 1.26218C96.1856 1.09513 96.1299 0.965197 96.0185 0.853828C95.9257 0.761021 95.8329 0.723898 95.7216 0.705336L96 0.185615L95.6102 0L95.1461 0.853828C95.0905 0.965197 95.0533 1.03944 95.0348 1.09513C95.0162 1.15081 95.0162 1.2065 95.0162 1.26218C95.0162 1.41067 95.0719 1.5406 95.1833 1.65197C95.2946 1.76334 95.4431 1.81903 95.6102 1.81903ZM95.4617 1.26218C95.4617 1.22506 95.4802 1.18793 95.4988 1.15081C95.5174 1.13225 95.5545 1.11369 95.5916 1.11369C95.6287 1.11369 95.6659 1.13225 95.703 1.15081C95.7401 1.18793 95.7401 1.2065 95.7401 1.26218C95.7401 1.2993 95.7215 1.33643 95.703 1.37355C95.6473 1.42923 95.5545 1.42923 95.4988 1.37355C95.4802 1.33643 95.4617 1.2993 95.4617 1.26218ZM96.9095 11.0812L96.4454 11.935C96.3898 12.0464 96.3526 12.1206 96.3341 12.1763C96.3155 12.232 96.3155 12.2877 96.3155 12.3434C96.3155 12.4919 96.3712 12.6218 96.4826 12.7332C96.5939 12.8445 96.7424 12.9002 96.9095 12.9002C97.0765 12.9002 97.2065 12.8445 97.3178 12.7332C97.4292 12.6218 97.4849 12.4919 97.4849 12.3434C97.4849 12.1763 97.4292 12.0464 97.3178 11.935C97.225 11.8608 97.1322 11.8051 97.0209 11.7865L97.2993 11.2668L96.9095 11.0812ZM97.058 12.3434C97.058 12.3805 97.0394 12.4176 97.0209 12.4548C96.9652 12.5104 96.8724 12.5104 96.8167 12.4548C96.7795 12.4176 96.7796 12.3991 96.7796 12.3434C96.7796 12.3063 96.7981 12.2691 96.8167 12.232C96.8352 12.2135 96.8724 12.1949 96.9095 12.1949C96.9466 12.1949 96.9837 12.2135 97.0209 12.232C97.0394 12.2506 97.058 12.2877 97.058 12.3434ZM99.5081 6.64501L99.044 7.49884C98.9884 7.61021 98.9512 7.68445 98.9327 7.74014C98.9141 7.79582 98.9141 7.85151 98.9141 7.90719C98.9141 8.05568 98.9698 8.18561 99.0812 8.29698C99.1925 8.40835 99.341 8.46404 99.5081 8.46404C99.6751 8.46404 99.8051 8.40835 99.9164 8.29698C100.028 8.18561 100.083 8.05568 100.083 7.90719C100.083 7.74014 100.028 7.61021 99.9164 7.49884C99.8236 7.42459 99.7308 7.36891 99.6195 7.35035L99.8979 6.83063L99.5081 6.64501ZM99.638 7.90719C99.638 7.94431 99.6195 7.98144 99.6009 8.01856C99.5452 8.07425 99.4524 8.07425 99.3967 8.01856C99.3596 7.98144 99.3596 7.96288 99.3596 7.90719C99.3596 7.87007 99.3782 7.83295 99.3967 7.79582C99.4153 7.77726 99.4524 7.7587 99.4895 7.7587C99.5267 7.7587 99.5638 7.77726 99.6009 7.79582C99.6195 7.83295 99.638 7.85151 99.638 7.90719ZM97.6334 10.1531L97.5591 10.2274H98.0603V10.6357H96.7796V10.3944L97.3178 9.87471C97.4292 9.76334 97.522 9.67053 97.5591 9.59629C97.5963 9.5406 97.6148 9.48492 97.6148 9.42923C97.6148 9.39211 97.5963 9.35499 97.5777 9.31787C97.522 9.26218 97.4106 9.26218 97.3364 9.33643C97.2993 9.37355 97.2807 9.42923 97.2807 9.48492V9.5406H96.8352V9.46636C96.8352 9.28074 96.9095 9.13225 97.0209 9.02088C97.1322 8.90951 97.2807 8.85383 97.4663 8.85383C97.5777 8.85383 97.6891 8.87239 97.7633 8.92807C97.8561 8.9652 97.9304 9.03944 97.9675 9.13225C98.0232 9.22506 98.0417 9.2993 98.0417 9.39211C98.0417 9.50348 98.0046 9.61485 97.9489 9.72622C97.8932 9.87471 97.7819 10.0046 97.6334 10.1531ZM95.6844 13.884C95.6844 14.051 95.7401 14.181 95.8515 14.2923C95.9443 14.3851 96.0371 14.4223 96.1485 14.4408L95.87 14.9606L96.2598 15.1462L96.7239 14.2923C96.7795 14.181 96.8167 14.1067 96.8352 14.051C96.8538 13.9954 96.8538 13.9397 96.8538 13.884C96.8538 13.7355 96.7981 13.6056 96.6868 13.4942C96.5754 13.3828 96.4269 13.3271 96.2598 13.3271C96.0928 13.3271 95.9629 13.3828 95.8515 13.4942C95.7401 13.587 95.6844 13.7169 95.6844 13.884ZM96.1299 13.884C96.1299 13.8469 96.1485 13.8097 96.167 13.7726C96.2041 13.7355 96.2227 13.7355 96.2784 13.7355C96.3155 13.7355 96.3526 13.7541 96.3712 13.7726C96.4083 13.8097 96.4083 13.8283 96.4083 13.884C96.4083 13.9211 96.3898 13.9582 96.3712 13.9954C96.3155 14.051 96.2227 14.051 96.167 13.9954C96.1485 13.9582 96.1299 13.9211 96.1299 13.884ZM97.4106 15.1276C97.2621 15.1276 97.1137 15.0905 97.0023 14.9977C96.8909 14.9049 96.8167 14.7935 96.7796 14.645L96.761 14.5708H97.225L97.2436 14.6079C97.2622 14.645 97.2807 14.6821 97.3178 14.7007C97.3921 14.7378 97.4849 14.7378 97.5406 14.6821C97.5777 14.645 97.5963 14.6079 97.5963 14.5336C97.5963 14.478 97.5777 14.4223 97.5406 14.4037C97.4849 14.348 97.4292 14.3295 97.355 14.3666C97.3364 14.3851 97.2993 14.4037 97.2807 14.4223L97.2622 14.4408L96.9095 14.3666L97.1322 13.3643H98.0417V13.7726H97.4849L97.4478 13.9211H97.4663C97.6334 13.9211 97.7819 13.9768 97.8932 14.0882C98.0046 14.1995 98.0603 14.348 98.0603 14.5151C98.0603 14.6821 98.0046 14.8306 97.8747 14.9606C97.7262 15.0534 97.5777 15.1276 97.4106 15.1276ZM98.5615 6.77494C98.4686 6.71926 98.3387 6.68213 98.2088 6.68213C98.0046 6.68213 97.8376 6.75638 97.7076 6.92343C97.5963 7.07193 97.5591 7.29466 97.5591 7.59165C97.5591 7.81438 97.5777 7.98144 97.6334 8.09281C97.6891 8.22274 97.7633 8.31554 97.8561 8.37123C97.9489 8.42691 98.0789 8.46404 98.2088 8.46404C98.3573 8.46404 98.4686 8.42691 98.5615 8.37123C98.6543 8.31554 98.7285 8.20418 98.7842 8.07425C98.8399 7.94431 98.8584 7.77726 98.8584 7.55452C98.8584 7.33179 98.8399 7.16473 98.7842 7.0348C98.7285 6.92343 98.6543 6.83063 98.5615 6.77494ZM98.413 7.57309C98.413 7.7587 98.3944 7.90719 98.3387 7.98144C98.3016 8.05568 98.2459 8.05568 98.2088 8.05568C98.1717 8.05568 98.116 8.05568 98.0789 7.96288C98.0417 7.92575 98.0046 7.81438 98.0046 7.57309C98.0046 7.42459 98.0232 7.31322 98.0417 7.23898C98.0603 7.16473 98.0789 7.12761 98.116 7.10905C98.1531 7.09049 98.1717 7.07193 98.2088 7.07193C98.2459 7.07193 98.3016 7.09049 98.3387 7.16473C98.3758 7.22042 98.413 7.33179 98.413 7.57309ZM97.3178 17.1694C97.4292 17.058 97.4849 16.9281 97.4849 16.7796C97.4849 16.6125 97.4292 16.4826 97.3178 16.3712C97.225 16.2784 97.1322 16.2413 97.0209 16.2227L97.2993 15.703L96.9095 15.5174L96.4454 16.3712C96.3898 16.4826 96.3526 16.5568 96.3341 16.6125C96.3155 16.6682 96.3155 16.7239 96.3155 16.7796C96.3155 16.9281 96.3712 17.058 96.4826 17.1694C96.5939 17.2807 96.7424 17.3364 96.9095 17.3364C97.058 17.3364 97.2065 17.2807 97.3178 17.1694ZM96.761 16.761C96.761 16.7239 96.7796 16.6868 96.7981 16.6497C96.8167 16.6311 96.8538 16.6125 96.8909 16.6125C96.928 16.6125 96.9652 16.6311 97.0023 16.6497C97.0394 16.6868 97.0394 16.7053 97.0394 16.761C97.0394 16.7981 97.0208 16.8353 97.0023 16.8724C96.9466 16.9281 96.8538 16.9281 96.7981 16.8724C96.7796 16.8538 96.761 16.8167 96.761 16.761ZM100.362 14.5893L100.288 14.6636H100.789V15.0719H99.4895V14.8492L100.028 14.3295C100.139 14.2181 100.232 14.1253 100.269 14.051C100.306 13.9954 100.325 13.9397 100.325 13.884C100.325 13.8469 100.306 13.8097 100.288 13.7726C100.232 13.7169 100.121 13.7169 100.046 13.7912C100.009 13.8283 99.9907 13.884 99.9907 13.9397V13.9954H99.5452V13.9211C99.5452 13.7355 99.6195 13.587 99.7308 13.4756C99.8422 13.3643 99.9907 13.3086 100.176 13.3086C100.288 13.3086 100.399 13.3271 100.473 13.3828C100.566 13.42 100.64 13.4942 100.677 13.587C100.733 13.6798 100.752 13.7541 100.752 13.8469C100.752 13.9582 100.715 14.0696 100.659 14.181C100.622 14.3109 100.51 14.4408 100.362 14.5893ZM96.8909 4.45476L96.1485 5.51276L96.1299 5.53132V5.90255H96.8538V6.23666H97.2993V5.90255H97.4478V5.4942H97.2993V4.45476H96.8909ZM96.6868 5.47564L96.8724 5.21578V5.47564H96.6868ZM99.6195 5.79118C99.6566 5.75406 99.6751 5.71694 99.6751 5.64269C99.6751 5.58701 99.6566 5.53132 99.6195 5.51276C99.5638 5.45708 99.5081 5.43851 99.4338 5.47564C99.4153 5.4942 99.3782 5.51276 99.3596 5.53132L99.341 5.54988L98.9884 5.47564L99.2111 4.47332H100.121V4.88167H99.5638L99.5267 5.03016H99.5452C99.7123 5.03016 99.8608 5.08585 99.9721 5.19722C100.083 5.30858 100.139 5.45708 100.139 5.62413C100.139 5.79118 100.083 5.93967 99.9536 6.06961C99.8236 6.18097 99.6751 6.25522 99.5081 6.25522C99.3596 6.25522 99.2111 6.2181 99.0997 6.12529C98.9884 6.03248 98.9141 5.92111 98.877 5.77262L98.8584 5.69838H99.3225L99.341 5.7355C99.3596 5.77262 99.3782 5.80974 99.4153 5.82831C99.4524 5.86543 99.5638 5.84687 99.6195 5.79118ZM99.3225 15.0719V14.7378H99.471V14.3295H99.3225V13.3086H98.8956L98.1531 14.3666L98.1345 14.3851V14.7564H98.8584V15.0905H99.3225V15.0719ZM98.6914 14.348L98.877 14.0882V14.348H98.6914ZM98.1531 17.355L98.6171 16.5012C98.6728 16.3898 98.71 16.3155 98.7285 16.2599C98.7471 16.2042 98.7471 16.1485 98.7471 16.0928C98.7471 15.9443 98.6914 15.8144 98.58 15.703C98.4686 15.5916 98.3202 15.536 98.1531 15.536C97.986 15.536 97.8561 15.5916 97.7447 15.703C97.6334 15.8144 97.5777 15.9443 97.5777 16.1114C97.5777 16.2784 97.6334 16.4084 97.7447 16.5197C97.8376 16.6125 97.9304 16.6497 98.0417 16.6682L97.7633 17.1879L98.1531 17.355ZM98.0046 16.0928C98.0046 16.0557 98.0232 16.0186 98.0417 15.9814C98.0789 15.9443 98.0974 15.9443 98.1531 15.9443C98.1902 15.9443 98.2273 15.9629 98.2459 15.9814C98.283 16.0186 98.283 16.0557 98.283 16.0928C98.283 16.1299 98.2645 16.1671 98.2459 16.2042C98.1902 16.2599 98.0974 16.2599 98.0417 16.2042C98.0232 16.1856 98.0046 16.1485 98.0046 16.0928ZM96.1113 9.61485C96.1485 9.55916 96.167 9.50348 96.167 9.4478C96.167 9.41067 96.1485 9.37355 96.1299 9.33643C96.0742 9.28074 95.9628 9.28074 95.8886 9.35499C95.8515 9.39211 95.8329 9.4478 95.8329 9.50348V9.55916H95.3874V9.48492C95.3874 9.2993 95.4617 9.15081 95.5731 9.03944C95.6844 8.92807 95.8329 8.87239 96.0185 8.87239C96.1299 8.87239 96.2413 8.89095 96.3155 8.94664C96.4083 8.98376 96.4826 9.058 96.5197 9.15081C96.5754 9.24362 96.5939 9.31787 96.5939 9.41067C96.5939 9.52204 96.5568 9.63341 96.5011 9.74478C96.4455 9.85615 96.3341 9.98608 96.1856 10.1531L96.1113 10.2274H96.6125V10.6357H95.3318V10.3944L95.87 9.87471C96 9.76334 96.0742 9.67053 96.1113 9.61485ZM97.0209 7.40603C97.058 7.35035 97.0765 7.29466 97.0765 7.23898C97.0765 7.20186 97.058 7.16473 97.0394 7.12761C96.9837 7.07193 96.8724 7.07193 96.7981 7.14617C96.761 7.18329 96.7424 7.23898 96.7424 7.29466V7.35035H96.297V7.2761C96.297 7.09049 96.3712 6.94199 96.4826 6.83063C96.5939 6.71926 96.7424 6.66357 96.928 6.66357C97.0394 6.66357 97.1322 6.68213 97.225 6.73782C97.3178 6.77494 97.3921 6.84919 97.4292 6.942C97.4849 7.0348 97.5034 7.10905 97.5034 7.20186C97.5034 7.31322 97.4663 7.42459 97.4106 7.53596C97.355 7.64733 97.2436 7.77726 97.0951 7.94431L97.0209 8.01856H97.522V8.42691H96.2413V8.18561L96.7796 7.66589C96.9095 7.55452 96.9837 7.46172 97.0209 7.40603ZM96.2784 19.5638L96.7424 18.71C96.7981 18.5986 96.8352 18.5244 96.8538 18.4687C96.8724 18.413 96.8724 18.3573 96.8724 18.3016C96.8724 18.1531 96.8167 18.0232 96.7053 17.9118C96.5939 17.8005 96.4454 17.7448 96.2784 17.7448C96.1113 17.7448 95.9814 17.8005 95.87 17.9118C95.7587 18.0232 95.703 18.1531 95.703 18.3202C95.703 18.4872 95.7587 18.6172 95.87 18.7285C95.9628 18.8213 96.0557 18.8585 96.167 18.877L95.8886 19.3968L96.2784 19.5638ZM96.1299 18.3202C96.1299 18.2831 96.1485 18.2459 96.167 18.2088C96.2041 18.1717 96.2227 18.1717 96.2784 18.1717C96.3155 18.1717 96.3526 18.1903 96.3712 18.2088C96.4083 18.2459 96.4083 18.2645 96.4083 18.3202C96.4083 18.3573 96.3898 18.3944 96.3712 18.4316C96.3155 18.4872 96.2227 18.4872 96.167 18.4316C96.1485 18.3944 96.1299 18.3573 96.1299 18.3202ZM97.8932 11.1369H98.8028V11.5452H98.2459L98.2088 11.6937H98.2274C98.3944 11.6937 98.5429 11.7494 98.6543 11.8608C98.7656 11.9722 98.8213 12.1206 98.8213 12.2877C98.8213 12.4548 98.7656 12.6032 98.6357 12.7332C98.5058 12.8445 98.3573 12.9188 98.1902 12.9188C98.0417 12.9188 97.8932 12.8817 97.7819 12.7889C97.6705 12.6961 97.5963 12.5847 97.5591 12.4362L97.5406 12.3619H98.0046L98.0232 12.3991C98.0417 12.4362 98.0603 12.4733 98.0974 12.4919C98.1717 12.529 98.2645 12.529 98.3202 12.4733C98.3573 12.4362 98.3758 12.3991 98.3758 12.3248C98.3758 12.2691 98.3573 12.2135 98.3202 12.1949C98.2645 12.1392 98.2088 12.1206 98.1345 12.1578C98.116 12.1763 98.0789 12.1949 98.0603 12.2135L98.0417 12.232L97.6891 12.1578L97.8932 11.1369ZM99.6009 2.69142H98.9327V2.28306H100.158V2.54292L99.3782 4.06496L98.9884 3.87935L99.6009 2.69142ZM98.2088 18.9698V18.8956H98.6543V18.9513C98.6728 19.0255 98.6914 19.0626 98.7285 19.0998C98.8028 19.1555 98.9141 19.1555 98.9884 19.0998C99.0255 19.0626 99.044 19.0255 99.044 18.9884C99.044 18.9327 99.0255 18.8956 98.9698 18.8585C98.9141 18.8213 98.8399 18.8028 98.7285 18.8028H98.6543V18.413H98.7099C98.8028 18.413 98.8399 18.3944 98.8584 18.3759C98.877 18.3573 98.8956 18.3573 98.9141 18.3202C98.9327 18.3016 98.9327 18.2831 98.9327 18.2645C98.9327 18.2459 98.9327 18.2274 98.9141 18.2088C98.8956 18.1903 98.877 18.1903 98.8399 18.1903C98.8028 18.1903 98.7842 18.1903 98.7656 18.2088C98.7471 18.2274 98.7285 18.2459 98.7099 18.2831L98.6914 18.3202H98.2645L98.283 18.2459C98.3016 18.116 98.3573 18.0046 98.4315 17.9304C98.5429 17.819 98.6914 17.7633 98.8584 17.7633C99.0069 17.7633 99.1369 17.819 99.2482 17.9118C99.3596 18.0046 99.4153 18.116 99.4153 18.2459C99.4153 18.3387 99.3967 18.413 99.341 18.4687C99.3225 18.5058 99.2854 18.5429 99.2482 18.5615C99.3039 18.5986 99.3596 18.6357 99.3967 18.6914C99.471 18.7842 99.4895 18.877 99.4895 18.9884C99.4895 19.1555 99.4338 19.2854 99.3039 19.3968C99.174 19.5081 99.0255 19.5638 98.8399 19.5638C98.6543 19.5638 98.5058 19.5081 98.3944 19.3968C98.283 19.2854 98.2273 19.1369 98.2088 18.9698ZM100.158 15.8329L99.3782 17.355L98.9884 17.1694L99.6009 15.9814H98.9327V15.5731H100.158V15.8329ZM98.3016 2.69142H97.6334V2.28306H98.8584V2.54292L98.0789 4.06496L97.6891 3.87935L98.3016 2.69142ZM100.622 5.14153H100.176V5.06729C100.176 4.88167 100.251 4.73318 100.362 4.62181C100.473 4.51044 100.622 4.45476 100.807 4.45476C100.919 4.45476 101.03 4.47332 101.104 4.529C101.197 4.56612 101.271 4.64037 101.309 4.73318C101.364 4.82599 101.383 4.90023 101.383 4.99304C101.383 5.10441 101.346 5.21578 101.29 5.32715C101.234 5.43851 101.123 5.56845 100.974 5.7355L100.9 5.80974H101.401V6.2181H100.121V5.9768L100.659 5.45708C100.77 5.34571 100.863 5.2529 100.9 5.17865C100.937 5.12297 100.956 5.06729 100.956 5.0116C100.956 4.97448 100.937 4.93735 100.919 4.90023C100.863 4.84455 100.752 4.84455 100.677 4.91879C100.64 4.95592 100.622 5.0116 100.622 5.06729V5.14153ZM97.0209 1.35499C97.058 1.31787 97.0765 1.28074 97.0765 1.2065C97.0765 1.15081 97.058 1.09513 97.0209 1.07657C96.9652 1.02088 96.9095 1.00232 96.8352 1.03944C96.8167 1.058 96.7796 1.07657 96.761 1.09513L96.7424 1.11369L96.3898 1.03944L96.6125 0.037123H97.522V0.445476H96.9652L96.928 0.593967H96.9466C97.1137 0.593967 97.2621 0.649652 97.3735 0.761021C97.4849 0.87239 97.5406 1.02088 97.5406 1.18793C97.5406 1.35499 97.4849 1.50348 97.355 1.63341C97.225 1.74478 97.0765 1.81903 96.9095 1.81903C96.761 1.81903 96.6125 1.7819 96.5011 1.6891C96.3898 1.59629 96.3155 1.48492 96.2784 1.33643L96.2598 1.26218H96.7239L96.7424 1.2993C96.761 1.33643 96.7795 1.37355 96.8167 1.39211C96.8724 1.42923 96.9652 1.42923 97.0209 1.35499ZM97.2622 2.33875C97.1693 2.28306 97.0394 2.24594 96.9095 2.24594C96.7053 2.24594 96.5383 2.32019 96.4083 2.48724C96.297 2.63573 96.2598 2.85847 96.2598 3.15545C96.2598 3.37819 96.2784 3.54524 96.3341 3.65661C96.3898 3.78654 96.464 3.87935 96.5568 3.93503C96.6496 3.99072 96.7795 4.02784 96.9095 4.02784C97.058 4.02784 97.1693 3.99072 97.2622 3.93503C97.355 3.87935 97.4292 3.76798 97.4849 3.63805C97.5406 3.50812 97.5591 3.34107 97.5591 3.11833C97.5591 2.89559 97.5406 2.72854 97.4849 2.59861C97.4478 2.5058 97.3735 2.39443 97.2622 2.33875ZM97.1137 3.13689C97.1137 3.32251 97.0951 3.471 97.0394 3.54524C97.0023 3.61949 96.9466 3.61949 96.9095 3.61949C96.8724 3.61949 96.8167 3.61949 96.7796 3.52668C96.7424 3.48956 96.7053 3.37819 96.7053 3.13689C96.7053 2.9884 96.7239 2.87703 96.7424 2.80278C96.761 2.72854 96.7795 2.69142 96.8167 2.67285C96.8352 2.65429 96.8724 2.63573 96.9095 2.63573C96.9466 2.63573 97.0023 2.65429 97.0394 2.72854C97.0765 2.78422 97.1137 2.89559 97.1137 3.13689ZM98.2088 6.25522C98.3758 6.25522 98.5058 6.19954 98.6171 6.08817C98.7285 5.9768 98.7842 5.84687 98.7842 5.69838C98.7842 5.53132 98.7285 5.40139 98.6171 5.29002C98.5243 5.21578 98.4315 5.16009 98.3202 5.14153L98.5986 4.62181L98.2088 4.43619L97.7447 5.29002C97.6891 5.40139 97.6519 5.47564 97.6334 5.53132C97.6148 5.58701 97.6148 5.64269 97.6148 5.69838C97.6148 5.84687 97.6705 5.9768 97.7819 6.08817C97.8932 6.19954 98.0417 6.25522 98.2088 6.25522ZM98.0603 5.69838C98.0603 5.66125 98.0789 5.62413 98.0974 5.58701C98.116 5.56845 98.1531 5.54988 98.1902 5.54988C98.2273 5.54988 98.2645 5.56845 98.3016 5.58701C98.3387 5.62413 98.3387 5.64269 98.3387 5.69838C98.3387 5.7355 98.3202 5.77262 98.3016 5.80974C98.2459 5.86543 98.1531 5.86543 98.0974 5.80974C98.0789 5.77262 98.0603 5.7355 98.0603 5.69838ZM93.5313 21.7726C93.6983 21.7726 93.8283 21.7169 93.9396 21.6056C94.051 21.4942 94.1067 21.3643 94.1067 21.2158C94.1067 21.0487 94.051 20.9188 93.9396 20.8074C93.8468 20.7146 93.754 20.6775 93.6427 20.6589L93.9211 20.1392L93.5313 19.9536L93.0673 20.8074C93.0116 20.9188 92.9744 20.993 92.9559 21.0487C92.9373 21.1044 92.9373 21.1601 92.9373 21.2158C92.9373 21.3643 92.993 21.4942 93.1044 21.6056C93.2158 21.7169 93.3642 21.7726 93.5313 21.7726ZM93.3828 21.1972C93.3828 21.1601 93.4014 21.123 93.4199 21.0858C93.4385 21.0673 93.4756 21.0487 93.5127 21.0487C93.5499 21.0487 93.587 21.0673 93.6241 21.0858C93.6612 21.123 93.6612 21.1415 93.6612 21.1972C93.6612 21.2343 93.6427 21.2715 93.6241 21.3086C93.5684 21.3643 93.4756 21.3643 93.4199 21.3086C93.4014 21.2715 93.3828 21.2529 93.3828 21.1972ZM93.2343 8.92807H93.8097V10.6543H93.3642V9.35499H92.9744L93.2343 8.92807ZM95.0348 4.49188H96.2598V4.75174L95.4803 6.29234L95.0905 6.10673L95.703 4.91879H95.0348V4.49188ZM98.2088 18.0418L97.4292 19.5638L97.0394 19.3782L97.6519 18.1903H97.0023V17.7819H98.2274L98.2088 18.0418ZM94.0881 8.92807H95.3132V9.18793L94.5336 10.71L94.1438 10.5244L94.7564 9.33643H94.1067V8.92807H94.0881ZM97.8561 21.7169H96.5754V21.4756L97.1137 20.9559C97.225 20.8445 97.3178 20.7517 97.355 20.6775C97.3921 20.6218 97.4106 20.5661 97.4106 20.5104C97.4106 20.4733 97.3921 20.4362 97.3735 20.3991C97.3178 20.3434 97.2065 20.3434 97.1322 20.4176C97.0951 20.4548 97.0765 20.5104 97.0765 20.5661V20.6218H96.6311V20.5476C96.6311 20.3619 96.7053 20.2135 96.8167 20.1021C96.928 19.9907 97.0765 19.935 97.2622 19.935C97.3735 19.935 97.4849 19.9536 97.5591 20.0093C97.6519 20.0464 97.7262 20.1206 97.7633 20.2135C97.819 20.3063 97.8376 20.3805 97.8376 20.4733C97.8376 20.5847 97.8004 20.6961 97.7447 20.8074C97.6891 20.9188 97.5777 21.0487 97.4292 21.2158L97.355 21.29H97.8561V21.7169ZM94.1809 12.9188L93.7912 12.7332L94.4037 11.5452H93.754V11.1369H94.9791V11.3968L94.1809 12.9188ZM95.5545 12.8631H96V12.529H96.1485V12.1206H96V11.0998H95.5916L94.8492 12.1578L94.8306 12.1763V12.5476H95.5545V12.8631ZM95.3874 12.1206L95.5731 11.8608V12.1206H95.3874Z" fill="#F2D080"/>
<path d="M106.283 0H110.719V24H106.283V0ZM113.429 0H126.404V4.51044H122.135V24.0186H117.606V4.51044H113.429V0Z" fill="#F2D080"/>
</g>
<defs>
<clipPath id="clip0_91_2799">
<rect width="126.422" height="24" fill="white"/>
</clipPath>
</defs>
</svg>
